version 1
nodes
0 "Root" -1
1 "Trans_Root" 0
2 "Skl_Root" 1
3 "Spine_1" 2
4 "Spine_2" 3
5 "Spine_3" 4
6 "Clavicle_L" 5
7 "Arm_1_L" 6
8 "Arm_1_L_Sub" 7
9 "Arm_2_L" 8
10 "Wrist_L" 9
11 "Hand_L" 10
12 "Clavicle_R" 5
13 "Arm_1_R" 12
14 "Arm_1_R_Sub" 13
15 "Arm_2_R" 14
16 "Wrist_R" 15
17 "Hand_R" 16
18 "Neck" 5
19 "Head" 18
20 "Ear_1_L" 19
21 "Ear_1_R" 19
22 "FaceRoot" 19
23 "Nose" 22
24 "Feel" 19
25 "Waist" 2
26 "Leg_1_L" 25
27 "Leg_1_L_Sub" 26
28 "Leg_2_L" 27
29 "Leg_2_L_Sub" 28
30 "Ankle_L" 29
31 "Toe_L" 30
32 "Leg_1_R" 25
33 "Leg_1_R_Sub" 32
34 "Leg_2_R" 33
35 "Leg_2_R_Sub" 34
36 "Ankle_R" 35
37 "Toe_R" 36
38 "TailRoot" 25
39 "Tail_1" 38
40 "Tail_2" 39
41 "Z_Tail" 40
end
skeleton
time 0
0 0 0 0 0 0 0
1 0 0 0 0 0 0
2 -0.07039487 4.779936 -0.1046946 0 0 0
3 0 0 0 1.618682 -0.02603947 1.559269
4 2.169108 0 0 0.006573182 0.02653176 0.006999023
5 1.57372 0 0 0.006488634 0.02343836 0.00549825
6 0.908364 0 0.7 -1.986095 -1.153421 1.95119
7 0.989264 0 0.219672 -0.02405491 0.118209 0.7211952
8 0.697546 0 0 -0.2061506 0 0
9 0.87866 0 0 2.462028E-07 7.05304E-07 0.6725457
10 1.61306 0 0 0 0 0
11 0.7025006 0.003205535 0.00717604 0 0 0
12 0.908364 0 -0.7 -2.384956 -1.382692 -0.8065265
13 -0.988649 0 -0.21967 -0.0866522 0.04273218 0.4376366
14 -0.69816 0 0 -0.2897626 0 0
15 -0.878661 0 0 4.262767E-07 5.83551E-07 1.261778
16 -1.613063 0 0 0 0 0
17 -0.7034636 0.004426046 0.004946999 0 0 0
18 1.327899 0 0 0.0001389491 -0.01150208 -0.002631329
19 0.03170101 0 0 -0.0555572 -0.01162927 0.07992993
20 5.399332 -0.580462 2.17593 0 0 0
21 5.399315 -0.5804622 -2.175933 0 0 3.141593
22 0 0 0 0 0 0
23 1.426178 3.512926 0 0 0 1.570796
24 3.057939 0.0778584 0 -1.570796 -1.570796 0
25 0 0 0 1.586024 0.03379127 -1.584258
26 -0.063815 0 -1.133617 -0.008156525 0.01835434 0.1016959
27 0.856682 -0.00300495 0 -0.00810021 0.01738908 0.1153052
28 1.94 0 0 0 0 -0.2123983
29 0.182077 4.48999E-06 0 0 0 -0.2223785
30 0.565037 0 0 0.005488884 -0.0190477 0.2500672
31 0.17727 0.3363641 0 0 0 1.570796
32 -0.063815 0 1.133617 0.008472115 -0.01785694 -3.05137
33 -0.856682 0.00299782 0 0.008527219 -0.01715267 0.1022432
34 -1.94 0 0 0 0 -0.1673947
35 -0.182077 0 0 0 0 -0.1775322
36 -0.565037 0 0 -0.005464709 0.01882041 0.186108
37 -0.17727 -0.3363641 0 4.547474E-13 -8.697612E-06 1.570796
39 -0.831173 -1.731595 0 -0.005881119 0.06402235 -1.580856
40 2.130095 0 0 -0.008068192 0.04523813 -0.7997083
time 1
0 0 0 0 0 0 0
1 0 0 0 0 0 0
2 -0.09612036 4.768747 -0.08673479 0 0 0
3 0 0 0 1.665838 -0.03425869 1.542997
4 2.169108 0 0 0.0280488 0.02261441 0.02006797
5 1.57372 0 0 0.02690207 0.01741339 0.01651106
6 0.908364 0 0.7 -1.980528 -1.155049 1.941087
7 0.989264 0 0.219672 -0.02133206 0.1107608 0.7676331
8 0.697546 0 0 -0.2007578 0 0
9 0.87866 0 0 2.462028E-07 7.053041E-07 0.6531522
10 1.61306 0 0 0 0 0
11 0.7046703 0.0008413941 0.007421536 0 0 0
12 0.908364 0 -0.7 -2.232009 -1.374974 -0.9608563
13 -0.988649 0 -0.21967 -0.08123149 0.04626879 0.4824926
14 -0.69816 0 0 -0.2809753 0 0
15 -0.878661 0 0 4.262767E-07 5.835509E-07 1.186801
16 -1.613063 0 0 0 0 0
17 -0.7056214 0.004519979 0.001199005 0 0 0
18 1.327899 0 0 -0.002089315 -0.008902563 -0.001477351
19 0.03170101 0 0 -0.1377152 0.01125598 0.05877682
20 5.399332 -0.580462 2.17593 0 0 0
21 5.399315 -0.5804622 -2.175933 0 0 3.141593
22 0 0 0 0 0 0
23 1.426178 3.512926 0 0 0 1.570796
24 3.057939 0.0778584 0 -1.570796 -1.570796 0
25 0 0 0 1.601106 0.06593435 -1.583546
26 -0.063815 0 -1.133617 -0.01594923 0.0236845 0.1192719
27 0.856682 -0.00300495 0 -0.01583553 0.02138737 0.135207
28 1.94 0 0 0 0 -0.229409
29 0.182077 4.48999E-06 0 0 0 -0.2393328
30 0.565037 0 0 0.007236878 -0.02550853 0.2789095
31 0.17727 0.3363641 0 0 0 1.570796
32 -0.063815 0 1.133617 0.01615085 -0.02298011 -3.030338
33 -0.856682 0.00299782 0 0.01618794 -0.02096338 0.1259656
34 -1.94 0 0 0 0 -0.1852929
35 -0.182077 0 0 0 0 -0.195367
36 -0.565037 0 0 -0.007144422 0.02491879 0.2091053
37 -0.17727 -0.3363641 0 4.547474E-13 -8.697612E-06 1.570796
39 -0.831173 -1.731595 0 -0.02190728 0.02608497 -1.606029
40 2.130095 0 0 -0.00270884 0.06892 -0.7906392
time 2
0 0 0 0 0 0 0
1 0 0 0 0 0 0
2 -0.1189113 4.758873 -0.07083817 0 0 0
3 0 0 0 1.711869 -0.0426481 1.527363
4 2.169108 0 0 0.05291763 0.01816578 0.03543629
5 1.57372 0 0 0.05065502 0.01119024 0.02973806
6 0.908364 0 0.7 -1.975159 -1.156498 1.930021
7 0.989264 0 0.219672 -0.01803233 0.09813032 0.8822371
8 0.697546 0 0 -0.1914731 0 0
9 0.87866 0 0 2.462025E-07 7.053036E-07 0.6100085
10 1.61306 0 0 0 0 0
11 0.7070321 -0.002104986 0.007858479 0 0 0
12 0.908364 0 -0.7 -1.903087 -1.341436 -1.290733
13 -0.988649 0 -0.21967 -0.07247487 0.05643398 0.5939626
14 -0.69816 0 0 -0.2702113 0 0
15 -0.878661 0 0 4.262766E-07 5.835508E-07 0.9993103
16 -1.613063 0 0 0 0 0
17 -0.7083591 0.004757312 -0.002782471 0 0 0
18 1.327899 0 0 -0.006050453 -0.006694306 0.002003395
19 0.03170101 0 0 -0.2334322 0.03114814 0.03864936
20 5.399332 -0.580462 2.17593 0 0 0
21 5.399315 -0.5804622 -2.175933 0 0 3.141593
22 0 0 0 0 0 0
23 1.426178 3.512926 0 0 0 1.570796
24 3.057939 0.0778584 0 -1.570796 -1.570796 0
25 0 0 0 1.615827 0.0961732 -1.583056
26 -0.063815 0 -1.133617 -0.0231498 0.02879739 0.1354946
27 0.856682 -0.00300495 0 -0.02302818 0.02492459 0.1537812
28 1.94 0 0 0 0 -0.2443756
29 0.182077 4.48999E-06 0 0 0 -0.2542473
30 0.565037 0 0 0.00858711 -0.03093671 0.3050073
31 0.17727 0.3363641 0 0 0 1.570796
32 -0.063815 0 1.133617 0.02327609 -0.02788375 -3.011532
33 -0.856682 0.00299782 0 0.02331164 -0.02429207 0.1472978
34 -1.94 0 0 0 0 -0.1992964
35 -0.182077 0 0 0 0 -0.2093216
36 -0.565037 0 0 -0.008436419 0.02992151 0.2263037
37 -0.17727 -0.3363641 0 4.547474E-13 -8.697612E-06 1.570796
39 -0.831173 -1.731595 0 -0.04108884 -0.02521193 -1.638051
40 2.130095 0 0 -0.0005058908 0.07867132 -0.7873736
time 3
0 0 0 0 0 0 0
1 0 0 0 0 0 0
2 -0.1347339 4.751802 -0.05950682 0 0 0
3 0 0 0 1.749703 -0.05060403 1.51485
4 2.169108 0 0 0.07902522 0.01344519 0.05204731
5 1.57372 0 0 0.07579236 0.005177982 0.04371808
6 0.908364 0 0.7 -1.970397 -1.157771 1.919084
7 0.989264 0 0.219672 -0.01470443 0.08065812 1.03545
8 0.697546 0 0 -0.1784563 0 0
9 0.87866 0 0 2.462024E-07 7.053034E-07 0.5522443
10 1.61306 0 0 0 0 0
11 0.7094167 -0.005346137 0.008483421 0 0 0
12 0.908364 0 -0.7 -1.617924 -1.273519 -1.580491
13 -0.988649 0 -0.21967 -0.05913159 0.07973259 0.7356638
14 -0.69816 0 0 -0.2686732 0 0
15 -0.878661 0 0 4.262766E-07 5.835509E-07 0.755578
16 -1.613063 0 0 0 0 0
17 -0.7113719 0.005058319 -0.006747378 0 0 0
18 1.327899 0 0 -0.01084497 -0.00472381 0.006915558
19 0.03170101 0 0 -0.3221094 0.04529534 0.02214397
20 5.399332 -0.580462 2.17593 0 0 0
21 5.399315 -0.5804622 -2.175933 0 0 3.141593
22 0 0 0 0 0 0
23 1.426178 3.512926 0 0 0 1.570796
24 3.057939 0.0778584 0 -1.570796 -1.570796 0
25 0 0 0 1.628208 0.1193604 -1.582544
26 -0.063815 0 -1.133617 -0.02927324 0.03299541 0.1476486
27 0.856682 -0.00300495 0 -0.02917068 0.02770269 0.1678917
28 1.94 0 0 0 0 -0.2553348
29 0.182077 4.48999E-06 0 0 0 -0.2651703
30 0.565037 0 0 0.009586832 -0.03502868 0.3244523
31 0.17727 0.3363641 0 0 0 1.570796
32 -0.063815 0 1.133617 0.02936443 -0.03191951 -2.997615
33 -0.856682 0.00299782 0 0.02939665 -0.02687697 0.1631692
34 -1.94 0 0 0 0 -0.2074568
35 -0.182077 0 0 0 0 -0.2174564
36 -0.565037 0 0 -0.009386929 0.03361014 0.2337074
37 -0.17727 -0.3363641 0 4.547474E-13 -8.697612E-06 1.570796
39 -0.831173 -1.731595 0 -0.06288762 -0.08231522 -1.670871
40 2.130095 0 0 -0.005404966 0.06239699 -0.7964439
time 4
0 0 0 0 0 0 0
1 0 0 0 0 0 0
2 -0.1409529 4.749023 -0.05524285 0 0 0
3 0 0 0 1.772933 -0.05752293 1.507942
4 2.169108 0 0 0.1008741 0.00871835 0.06767423
5 1.57372 0 0 0.09696843 -0.0002067725 0.05699554
6 0.908364 0 0.7 -1.966649 -1.158876 1.909366
7 0.989264 0 0.219672 -0.01189714 0.0648733 1.185013
8 0.697546 0 0 -0.1658807 0 0
9 0.87866 0 0 2.462021E-07 7.05303E-07 0.4946315
10 1.61306 0 0 0 0 0
11 0.7116547 -0.008594587 0.009292908 0 0 0
12 0.908364 0 -0.7 -1.444468 -1.191337 -1.763092
13 -0.988649 0 -0.21967 -0.03934824 0.1193192 0.8701825
14 -0.69816 0 0 -0.287483 0 0
15 -0.878661 0 0 4.262767E-07 5.835509E-07 0.511855
16 -1.613063 0 0 0 0 0
17 -0.714355 0.005343272 -0.01044567 0 0 0
18 1.327899 0 0 -0.01564299 -0.003036283 0.01234746
19 0.03170101 0 0 -0.3834336 0.05094828 0.01186257
20 5.399332 -0.580462 2.17593 0 0 0
21 5.399315 -0.5804622 -2.175933 0 0 3.141593
22 0 0 0 0 0 0
23 1.426178 3.512926 0 0 0 1.570796
24 3.057939 0.0778584 0 -1.570796 -1.570796 0
25 0 0 0 1.636266 0.1303491 -1.581766
26 -0.063815 0 -1.133617 -0.03383178 0.03557686 0.1530007
27 0.856682 -0.00300495 0 -0.0337562 0.02942423 0.1744054
28 1.94 0 0 0 0 -0.2603236
29 0.182077 4.48999E-06 0 0 0 -0.2701423
30 0.565037 0 0 0.01028345 -0.03748212 0.3333476
31 0.17727 0.3363641 0 0 0 1.570796
32 -0.063815 0 1.133617 0.03393244 -0.03443906 -2.991253
33 -0.856682 0.00299782 0 0.03393866 -0.02845368 0.1704946
34 -1.94 0 0 0 0 -0.2089676
35 -0.182077 0 0 0 0 -0.2189617
36 -0.565037 0 0 -0.01004187 0.03576447 0.233463
37 -0.17727 -0.3363641 0 4.547474E-13 -8.697612E-06 1.570796
39 -0.831173 -1.731595 0 -0.08335779 -0.1347717 -1.69643
40 2.130095 0 0 -0.01968001 0.02454147 -0.8207379
time 5
0 0 0 0 0 0 0
1 0 0 0 0 0 0
2 -0.1404942 4.75133 -0.05973232 0 0 0
3 0 0 0 1.781013 -0.06280112 1.506255
4 2.169108 0 0 0.1139399 0.004241422 0.08064035
5 1.57372 0 0 0.10976 -0.004549887 0.06811968
6 0.908364 0 0.7 -1.964321 -1.159819 1.901956
7 0.989264 0 0.219672 -0.007977994 0.05729467 1.301568
8 0.697546 0 0 -0.1575309 0 0
9 0.87866 0 0 2.462026E-07 7.053038E-07 0.4519436
10 1.61306 0 0 0 0 0
11 0.7135767 -0.01156287 0.01028349 0 0 0
12 0.908364 0 -0.7 -1.355965 -1.125692 -1.860822
13 -0.988649 0 -0.21967 -0.0194259 0.1605755 0.9691879
14 -0.69816 0 0 -0.3141049 0 0
15 -0.878661 0 0 4.262747E-07 5.83549E-07 0.3243903
16 -1.613063 0 0 0 0 0
17 -0.7170035 0.005532446 -0.01362731 0 0 0
18 1.327899 0 0 -0.01954912 -0.001610267 0.01556629
19 0.03170101 0 0 -0.4106696 0.04859932 0.009341451
20 5.399332 -0.580462 2.17593 0 0 0
21 5.399315 -0.5804622 -2.175933 0 0 3.141593
22 0 0 0 0 0 0
23 1.426178 3.512926 0 0 0 1.570796
24 3.057939 0.0778584 0 -1.570796 -1.570796 0
25 0 0 0 1.640387 0.1287418 -1.580479
26 -0.063815 0 -1.133617 -0.03633991 0.03584316 0.1509936
27 0.856682 -0.00300495 0 -0.03627863 0.02979223 0.1721932
28 1.94 0 0 0 0 -0.257379
29 0.182077 4.48999E-06 0 0 0 -0.2672077
30 0.565037 0 0 0.01072418 -0.03799292 0.3278532
31 0.17727 0.3363641 0 0 0 1.570796
32 -0.063815 0 1.133617 0.03649669 -0.03479411 -2.991891
33 -0.856682 0.00299782 0 0.03643744 -0.02876222 0.169832
34 -1.94 0 0 0 0 -0.2056971
35 -0.182077 0 0 0 0 -0.2157027
36 -0.565037 0 0 -0.01044746 0.03616596 0.2274641
37 -0.17727 -0.3363641 0 4.547474E-13 -8.697612E-06 1.570796
39 -0.831173 -1.731595 0 -0.09954693 -0.1721278 -1.706668
40 2.130095 0 0 -0.03963663 -0.02640428 -0.853129
time 6
0 0 0 0 0 0 0
1 0 0 0 0 0 0
2 -0.137682 4.757306 -0.07080714 0 0 0
3 0 0 0 1.783034 -0.06712646 1.507035
4 2.169108 0 0 0.1180483 0.0002725678 0.09116149
5 1.57372 0 0 0.1139399 -0.007437586 0.07691886
6 0.908364 0 0.7 -1.96295 -1.160607 1.896416
7 0.989264 0 0.219672 0.0004440412 0.0644412 1.349703
8 0.697546 0 0 -0.1571957 0 0
9 0.87866 0 0 2.462027E-07 7.053037E-07 0.4349742
10 1.61306 0 0 0 0 0
11 0.7150134 -0.01396351 0.01145172 0 0 0
12 0.908364 0 -0.7 -1.32573 -1.098448 -1.895174
13 -0.988649 0 -0.21967 -0.009094095 0.1833554 1.006351
14 -0.69816 0 0 -0.3301834 0 0
15 -0.878661 0 0 4.262738E-07 5.835477E-07 0.2493773
16 -1.613063 0 0 0 0 0
17 -0.7190129 0.005546112 -0.01604224 0 0 0
18 1.327899 0 0 -0.02173564 -0.0004393721 0.015719
19 0.03170101 0 0 -0.4181046 0.04034543 0.004299221
20 5.399332 -0.580462 2.17593 0 0 0
21 5.399315 -0.5804622 -2.175933 0 0 3.141593
22 0 0 0 0 0 0
23 1.426178 3.512926 0 0 0 1.570796
24 3.057939 0.0778584 0 -1.570796 -1.570796 0
25 0 0 0 1.642684 0.1201299 -1.578441
26 -0.063815 0 -1.133617 -0.03753841 0.03416171 0.1443401
27 0.856682 -0.00300495 0 -0.03747683 0.02850752 0.1646211
28 1.94 0 0 0 0 -0.2461094
29 0.182077 4.48999E-06 0 0 0 -0.2559763
30 0.565037 0 0 0.01095635 -0.03738155 0.3109839
31 0.17727 0.3363641 0 0 0 1.570796
32 -0.063815 0 1.133617 0.03762646 -0.03327251 -2.996092
33 -0.856682 0.00299782 0 0.03756351 -0.02753841 0.1650436
34 -1.94 0 0 0 0 -0.1993539
35 -0.182077 0 0 0 0 -0.2093809
36 -0.565037 0 0 -0.01064985 0.03553127 0.2176018
37 -0.17727 -0.3363641 0 4.547474E-13 -8.697612E-06 1.570796
39 -0.831173 -1.731595 0 -0.1110276 -0.1873297 -1.696327
40 2.130095 0 0 -0.06186593 -0.08253901 -0.8857827
time 7
0 0 0 0 0 0 0
1 0 0 0 0 0 0
2 -0.134842 4.765112 -0.08519241 0 0 0
3 0 0 0 1.784459 -0.07110016 1.50922
4 2.169108 0 0 0.1174865 -0.002930376 0.09945015
5 1.57372 0 0 0.1136266 -0.009176567 0.08426473
6 0.908364 0 0.7 -1.96181 -1.161244 1.891729
7 0.989264 0 0.219672 0.01557033 0.09072044 1.333312
8 0.697546 0 0 -0.1664409 0 0
9 0.87866 0 0 2.462026E-07 7.053038E-07 0.4445195
10 1.61306 0 0 0 0 0
11 0.7160252 -0.01550904 0.01279415 0 0 0
12 0.908364 0 -0.7 -1.323801 -1.099587 -1.89791
13 -0.988649 0 -0.21967 -0.01416737 0.1769577 0.9695551
14 -0.69816 0 0 -0.3232826 0 0
15 -0.878661 0 0 4.262759E-07 5.835502E-07 0.2761817
16 -1.613063 0 0 0 0 0
17 -0.7204879 0.005304544 -0.01781879 0 0 0
18 1.327899 0 0 -0.02255288 0.0004907059 0.01380262
19 0.03170101 0 0 -0.4200893 0.02804299 -0.01695517
20 5.399332 -0.580462 2.17593 0 0 0
21 5.399315 -0.5804622 -2.175933 0 0 3.141593
22 0 0 0 0 0 0
23 1.426178 3.512926 0 0 0 1.570796
24 3.057939 0.0778584 0 -1.570796 -1.570796 0
25 0 0 0 1.643774 0.1083428 -1.575408
26 -0.063815 0 -1.133617 -0.03854749 0.03170918 0.1352107
27 0.856682 -0.00300495 0 -0.0384873 0.02635471 0.1541978
28 1.94 0 0 0 0 -0.2298658
29 0.182077 4.48999E-06 0 0 0 -0.2397897
30 0.565037 0 0 0.01102733 -0.03667722 0.2879474
31 0.17727 0.3363641 0 0 0 1.570796
32 -0.063815 0 1.133617 0.03855611 -0.03105411 -3.002193
33 -0.856682 0.00299782 0 0.03849464 -0.02552114 0.158049
34 -1.94 0 0 0 0 -0.1916452
35 -0.182077 0 0 0 0 -0.2016989
36 -0.565037 0 0 -0.01069503 0.03483434 0.2057618
37 -0.17727 -0.3363641 0 4.547474E-13 -8.697612E-06 1.570796
39 -0.831173 -1.731595 0 -0.1200909 -0.1873402 -1.670632
40 2.130095 0 0 -0.08295886 -0.1351357 -0.9108597
time 8
0 0 0 0 0 0 0
1 0 0 0 0 0 0
2 -0.1319334 4.772914 -0.09961318 0 0 0
3 0 0 0 1.785475 -0.0746738 1.511745
4 2.169108 0 0 0.1144323 -0.005289082 0.1057173
5 1.57372 0 0 0.1109065 -0.01044764 0.09009048
6 0.908364 0 0.7 -1.960916 -1.161738 1.887976
7 0.989264 0 0.219672 0.03645023 0.1307053 1.289414
8 0.697546 0 0 -0.1813875 0 0
9 0.87866 0 0 2.462029E-07 7.053042E-07 0.4725496
10 1.61306 0 0 0 0 0
11 0.7167931 -0.01631575 0.01430732 0 0 0
12 0.908364 0 -0.7 -1.320908 -1.102438 -1.900826
13 -0.988649 0 -0.21967 -0.02841412 0.1522658 0.8813992
14 -0.69816 0 0 -0.301933 0 0
15 -0.878661 0 0 4.262768E-07 5.83551E-07 0.3414299
16 -1.613063 0 0 0 0 0
17 -0.7217166 0.004728016 -0.01923562 0 0 0
18 1.327899 0 0 -0.02314485 0.001193907 0.01085261
19 0.03170101 0 0 -0.4188459 0.01354822 -0.04920444
20 5.399332 -0.580462 2.17593 0 0 0
21 5.399315 -0.5804622 -2.175933 0 0 3.141593
22 0 0 0 0 0 0
23 1.426178 3.512926 0 0 0 1.570796
24 3.057939 0.0778584 0 -1.570796 -1.570796 0
25 0 0 0 1.644273 0.09720921 -1.572198
26 -0.063815 0 -1.133617 -0.03945922 0.02905085 0.1258022
27 0.856682 -0.00300495 0 -0.03939777 0.0243751 0.1434328
28 1.94 0 0 0 0 -0.2129217
29 0.182077 4.48999E-06 0 0 0 -0.2229022
30 0.565037 0 0 0.01098437 -0.03599459 0.2639453
31 0.17727 0.3363641 0 0 0 1.570796
32 -0.063815 0 1.133617 0.03937286 -0.02865706 -3.008532
33 -0.856682 0.00299782 0 0.03932431 -0.0236776 0.1507731
34 -1.94 0 0 0 0 -0.1842799
35 -0.182077 0 0 0 0 -0.1943572
36 -0.565037 0 0 -0.01062941 0.03417645 0.1938414
37 -0.17727 -0.3363641 0 4.547474E-13 -8.697612E-06 1.570796
39 -0.831173 -1.731595 0 -0.1268662 -0.1827492 -1.637271
40 2.130095 0 0 -0.09950658 -0.1728734 -0.9205256
time 9
0 0 0 0 0 0 0
1 0 0 0 0 0 0
2 -0.1297179 4.778875 -0.1107945 0 0 0
3 0 0 0 1.787627 -0.07780003 1.513547
4 2.169108 0 0 0.1110707 -0.006882264 0.1101806
5 1.57372 0 0 0.1078512 -0.01126599 0.094318
6 0.908364 0 0.7 -1.960287 -1.162094 1.885242
7 0.989264 0 0.219672 0.05783053 0.1761745 1.229374
8 0.697546 0 0 -0.1976613 0 0
9 0.87866 0 0 2.462029E-07 7.053042E-07 0.509064
10 1.61306 0 0 0 0 0
11 0.7173269 -0.01671917 0.01598778 0 0 0
12 0.908364 0 -0.7 -1.317784 -1.106894 -1.903358
13 -0.988649 0 -0.21967 -0.04349487 0.1214931 0.7671193
14 -0.69816 0 0 -0.2774605 0 0
15 -0.878661 0 0 4.262764E-07 5.835507E-07 0.4290675
16 -1.613063 0 0 0 0 0
17 -0.7226686 0.003736799 -0.02026802 0 0 0
18 1.327899 0 0 -0.02348074 0.001679965 0.007849051
19 0.03170101 0 0 -0.4174661 -0.001282668 -0.08551548
20 5.399332 -0.580462 2.17593 0 0 0
21 5.399315 -0.5804622 -2.175933 0 0 3.141593
22 0 0 0 0 0 0
23 1.426178 3.512926 0 0 0 1.570796
24 3.057939 0.0778584 0 -1.570796 -1.570796 0
25 0 0 0 1.644796 0.0900528 -1.569799
26 -0.063815 0 -1.133617 -0.04035887 0.02674506 0.1182851
27 0.856682 -0.00300495 0 -0.04029619 0.02275312 0.1348362
28 1.94 0 0 0 0 -0.1995419
29 0.182077 4.48999E-06 0 0 0 -0.2095679
30 0.565037 0 0 0.01087483 -0.03544903 0.2440882
31 0.17727 0.3363641 0 0 0 1.570796
32 -0.063815 0 1.133617 0.04016396 -0.02659946 -3.013447
33 -0.856682 0.00299782 0 0.04014216 -0.02217917 0.145125
34 -1.94 0 0 0 0 -0.1789653
35 -0.182077 0 0 0 0 -0.1890611
36 -0.565037 0 0 -0.01049872 0.03365562 0.1841066
37 -0.17727 -0.3363641 0 4.547474E-13 -8.697612E-06 1.570796
39 -0.831173 -1.731595 0 -0.1314824 -0.1793869 -1.603928
40 2.130095 0 0 -0.1109939 -0.1880862 -0.9102907
time 10
0 0 0 0 0 0 0
1 0 0 0 0 0 0
2 -0.1289572 4.781158 -0.1154616 0 0 0
3 0 0 0 1.792464 -0.08043044 1.513563
4 2.169108 0 0 0.1091759 -0.007727637 0.1130493
5 1.57372 0 0 0.106133 -0.01164739 0.09687335
6 0.908364 0 0.7 -1.959939 -1.16232 1.883609
7 0.989264 0 0.219672 0.07500809 0.2189069 1.168914
8 0.697546 0 0 -0.2108871 0 0
9 0.87866 0 0 2.462023E-07 7.053033E-07 0.5440626
10 1.61306 0 0 0 0 0
11 0.7176366 -0.01676006 0.01737229 0 0 0
12 0.908364 0 -0.7 -1.314879 -1.112894 -1.904988
13 -0.988649 0 -0.21967 -0.05422287 0.09376259 0.6509849
14 -0.69816 0 0 -0.2583895 0 0
15 -0.878661 0 0 4.262758E-07 5.835502E-07 0.5175616
16 -1.613063 0 0 0 0 0
17 -0.7233137 0.002760955 -0.02089129 0 0 0
18 1.327899 0 0 -0.02366012 0.00196572 0.005833226
19 0.03170101 0 0 -0.4190408 -0.01459327 -0.1189548
20 5.399332 -0.580462 2.17593 0 0 0
21 5.399315 -0.5804622 -2.175933 0 0 3.141593
22 0 0 0 0 0 0
23 1.426178 3.512926 0 0 0 1.570796
24 3.057939 0.0778584 0 -1.570796 -1.570796 0
25 0 0 0 1.64596 0.08731252 -1.568103
26 -0.063815 0 -1.133617 -0.04133316 0.02535217 0.1148369
27 0.856682 -0.00300495 0 -0.0412712 0.02167353 0.1309201
28 1.94 0 0 0 0 -0.1939969
29 0.182077 4.48999E-06 0 0 0 -0.2040416
30 0.565037 0 0 0.01074596 -0.0351554 0.2346398
31 0.17727 0.3363641 0 0 0 1.570796
32 -0.063815 0 1.133617 0.04101663 -0.02539946 -3.015276
33 -0.856682 0.00299782 0 0.04104422 -0.02120162 0.1430384
34 -1.94 0 0 0 0 -0.1774085
35 -0.182077 0 0 0 0 -0.187514
36 -0.565037 0 0 -0.01034915 0.03337211 0.1798663
37 -0.17727 -0.3363641 0 4.547474E-13 -8.697612E-06 1.570796
39 -0.831173 -1.731595 0 -0.1340688 -0.1763011 -1.578288
40 2.130095 0 0 -0.1200892 -0.1877322 -0.884727
time 11
0 0 0 0 0 0 0
1 0 0 0 0 0 0
2 -0.1304132 4.778315 -0.1118521 0 0 0
3 0 0 0 1.801535 -0.08251721 1.51073
4 2.169108 0 0 0.1088538 -0.007843715 0.1141007
5 1.57372 0 0 0.1058445 -0.01161012 0.09769646
6 0.908364 0 0.7 -1.95989 -1.16242 1.883161
7 0.989264 0 0.219672 0.08504111 0.2506813 1.123757
8 0.697546 0 0 -0.2182887 0 0
9 0.87866 0 0 2.462028E-07 7.05304E-07 0.5716385
10 1.61306 0 0 0 0 0
11 0.7177321 -0.01647918 0.01804099 0 0 0
12 0.908364 0 -0.7 -1.31264 -1.120379 -1.9052
13 -0.988649 0 -0.21967 -0.06101793 0.07367672 0.5667586
14 -0.69816 0 0 -0.2471271 0 0
15 -0.878661 0 0 4.262766E-07 5.83551E-07 0.5853796
16 -1.613063 0 0 0 0 0
17 -0.7236215 0.002247147 -0.02108073 0 0 0
18 1.327899 0 0 -0.02365315 0.002058937 0.005578455
19 0.03170101 0 0 -0.4266656 -0.02452755 -0.1425901
20 5.399332 -0.580462 2.17593 0 0 0
21 5.399315 -0.5804622 -2.175933 0 0 3.141593
22 0 0 0 0 0 0
23 1.426178 3.512926 0 0 0 1.570796
24 3.057939 0.0778584 0 -1.570796 -1.570796 0
25 0 0 0 1.64838 0.0884935 -1.567
26 -0.063815 0 -1.133617 -0.04246909 0.02543275 0.1161518
27 0.856682 -0.00300495 0 -0.04240842 0.02131925 0.1324932
28 1.94 0 0 0 0 -0.1981415
29 0.182077 4.48999E-06 0 0 0 -0.208174
30 0.565037 0 0 0.01064523 -0.03522961 0.2415749
31 0.17727 0.3363641 0 0 0 1.570796
32 -0.063815 0 1.133617 0.04201812 -0.02557514 -3.01308
33 -0.856682 0.00299782 0 0.04212016 -0.02091638 0.1455856
34 -1.94 0 0 0 0 -0.1820706
35 -0.182077 0 0 0 0 -0.1921578
36 -0.565037 0 0 -0.01022708 0.03342698 0.1845625
37 -0.17727 -0.3363641 0 4.547474E-13 -8.697612E-06 1.570796
39 -0.831173 -1.731595 0 -0.1347546 -0.1739139 -1.568036
40 2.130095 0 0 -0.1269159 -0.1824256 -0.8515458
time 12
0 0 0 0 0 0 0
1 0 0 0 0 0 0
2 -0.1343666 4.77147 -0.1023413 0 0 0
3 0 0 0 1.815252 -0.08401224 1.504835
4 2.169108 0 0 0.1097722 -0.00724861 0.1127838
5 1.57372 0 0 0.1066619 -0.01116814 0.09670258
6 0.908364 0 0.7 -1.960156 -1.162402 1.88398
7 0.989264 0 0.219672 0.08817904 0.2632763 1.105271
8 0.697546 0 0 -0.2199068 0 0
9 0.87866 0 0 2.462027E-07 7.053039E-07 0.5828503
10 1.61306 0 0 0 0 0
11 0.7176234 -0.01591727 0.01805603 0 0 0
12 0.908364 0 -0.7 -1.311517 -1.129284 -1.903478
13 -0.988649 0 -0.21967 -0.06445057 0.06665828 0.5380989
14 -0.69816 0 0 -0.2475842 0 0
15 -0.878661 0 0 4.262767E-07 5.835509E-07 0.6109863
16 -1.613063 0 0 0 0 0
17 -0.7235615 0.002140365 -0.02081166 0 0 0
18 1.327899 0 0 -0.02355213 0.001977468 0.006654765
19 0.03170101 0 0 -0.4422889 -0.0292294 -0.1494885
20 5.399332 -0.580462 2.17593 0 0 0
21 5.399315 -0.5804622 -2.175933 0 0 3.141593
22 0 0 0 0 0 0
23 1.426178 3.512926 0 0 0 1.570796
24 3.057939 0.0778584 0 -1.570796 -1.570796 0
25 0 0 0 1.65215 0.09310126 -1.566381
26 -0.063815 0 -1.133617 -0.04385884 0.02677583 0.1205068
27 0.856682 -0.00300495 0 -0.04379625 0.02187495 0.1375649
28 1.94 0 0 0 0 -0.2090122
29 0.182077 4.48999E-06 0 0 0 -0.2190043
30 0.565037 0 0 0.01061983 -0.03578602 0.2587739
31 0.17727 0.3363641 0 0 0 1.570796
32 -0.063815 0 1.133617 0.04325566 -0.02692714 -3.007992
33 -0.856682 0.00299782 0 0.04346014 -0.02149556 0.1514522
34 -1.94 0 0 0 0 -0.1924335
35 -0.182077 0 0 0 0 -0.2024848
36 -0.565037 0 0 -0.01017842 0.03391917 0.1992977
37 -0.17727 -0.3363641 0 4.547474E-13 -8.697612E-06 1.570796
39 -0.831173 -1.731595 0 -0.1334144 -0.1726473 -1.578511
40 2.130095 0 0 -0.1315971 -0.1789616 -0.8184548
time 13
0 0 0 0 0 0 0
1 0 0 0 0 0 0
2 -0.1396799 4.762644 -0.08985575 0 0 0
3 0 0 0 1.830907 -0.08486781 1.497438
4 2.169108 0 0 0.1116028 -0.005960849 0.1094314
5 1.57372 0 0 0.1082846 -0.01033892 0.0938275
6 0.908364 0 0.7 -1.960754 -1.162271 1.886149
7 0.989264 0 0.219672 0.08450639 0.251289 1.114643
8 0.697546 0 0 -0.215593 0 0
9 0.87866 0 0 2.462028E-07 7.05304E-07 0.5674074
10 1.61306 0 0 0 0 0
11 0.7173204 -0.01511512 0.01747955 0 0 0
12 0.908364 0 -0.7 -1.311958 -1.139552 -1.899305
13 -0.988649 0 -0.21967 -0.06509098 0.07336399 0.5846074
14 -0.69816 0 0 -0.2619461 0 0
15 -0.878661 0 0 4.262768E-07 5.835509E-07 0.5771859
16 -1.613063 0 0 0 0 0
17 -0.7231033 0.0023856 -0.02005937 0 0 0
18 1.327899 0 0 -0.02332269 0.001728327 0.008742255
19 0.03170101 0 0 -0.4625553 -0.02836901 -0.1345636
20 5.399332 -0.580462 2.17593 0 0 0
21 5.399315 -0.5804622 -2.175933 0 0 3.141593
22 0 0 0 0 0 0
23 1.426178 3.512926 0 0 0 1.570796
24 3.057939 0.0778584 0 -1.570796 -1.570796 0
25 0 0 0 1.656373 0.09988859 -1.566136
26 -0.063815 0 -1.133617 -0.04558784 0.0284506 0.1264269
27 0.856682 -0.00300495 0 -0.04552538 0.022904 0.1444414
28 1.94 0 0 0 0 -0.2230222
29 0.182077 4.48999E-06 0 0 0 -0.2329676
30 0.565037 0 0 0.01071715 -0.03694027 0.2808363
31 0.17727 0.3363641 0 0 0 1.570796
32 -0.063815 0 1.133617 0.04481647 -0.02862043 -3.001455
33 -0.856682 0.00299782 0 0.045158 -0.02249 0.1589798
34 -1.94 0 0 0 0 -0.2055786
35 -0.182077 0 0 0 0 -0.2155831
36 -0.565037 0 0 -0.01024935 0.03494882 0.2185752
37 -0.17727 -0.3363641 0 4.547474E-13 -8.697612E-06 1.570796
39 -0.831173 -1.731595 0 -0.1299438 -0.1729233 -1.604596
40 2.130095 0 0 -0.1342562 -0.1757626 -0.7931632
time 14
0 0 0 0 0 0 0
1 0 0 0 0 0 0
2 -0.1449932 4.753857 -0.07732226 0 0 0
3 0 0 0 1.845359 -0.0850357 1.490134
4 2.169108 0 0 0.1140079 -0.003997879 0.1043671
5 1.57372 0 0 0.1103949 -0.009137517 0.08899235
6 0.908364 0 0.7 -1.961702 -1.162033 1.889753
7 0.989264 0 0.219672 0.07410752 0.2205441 1.142682
8 0.697546 0 0 -0.2051902 0 0
9 0.87866 0 0 2.462028E-07 7.05304E-07 0.5314933
10 1.61306 0 0 0 0 0
11 0.7168329 -0.01411346 0.01637368 0 0 0
12 0.908364 0 -0.7 -1.314413 -1.151119 -1.892164
13 -0.988649 0 -0.21967 -0.06350986 0.08829303 0.6841586
14 -0.69816 0 0 -0.2873448 0 0
15 -0.878661 0 0 4.262766E-07 5.835508E-07 0.4985582
16 -1.613063 0 0 0 0 0
17 -0.7222167 0.002927843 -0.01879916 0 0 0
18 1.327899 0 0 -0.02307836 0.001330915 0.01156736
19 0.03170101 0 0 -0.4826029 -0.02453618 -0.1026968
20 5.399332 -0.580462 2.17593 0 0 0
21 5.399315 -0.5804622 -2.175933 0 0 3.141593
22 0 0 0 0 0 0
23 1.426178 3.512926 0 0 0 1.570796
24 3.057939 0.0778584 0 -1.570796 -1.570796 0
25 0 0 0 1.660174 0.1068024 -1.566157
26 -0.063815 0 -1.133617 -0.04730597 0.03004778 0.1324379
27 0.856682 -0.00300495 0 -0.04724266 0.02374726 0.1514022
28 1.94 0 0 0 0 -0.2365881
29 0.182077 4.48999E-06 0 0 0 -0.2464879
30 0.565037 0 0 0.01098442 -0.03848698 0.3023552
31 0.17727 0.3363641 0 0 0 1.570796
32 -0.063815 0 1.133617 0.04647679 -0.03023494 -2.994913
33 -0.856682 0.00299782 0 0.0468003 -0.02330364 0.1665081
34 -1.94 0 0 0 0 -0.218585
35 -0.182077 0 0 0 0 -0.228546
36 -0.565037 0 0 -0.01048587 0.0360828 0.2374642
37 -0.17727 -0.3363641 0 4.547474E-13 -8.697612E-06 1.570796
39 -0.831173 -1.731595 0 -0.1245985 -0.1751642 -1.638279
40 2.130095 0 0 -0.1350165 -0.1732713 -0.7833823
time 15
0 0 0 0 0 0 0
1 0 0 0 0 0 0
2 -0.1489466 4.747131 -0.06766753 0 0 0
3 0 0 0 1.855468 -0.08446798 1.484512
4 2.169108 0 0 0.1157887 -0.001378585 0.0979276
5 1.57372 0 0 0.1118765 -0.007580642 0.08274716
6 0.908364 0 0.7 -1.963015 -1.161695 1.894116
7 0.989264 0 0.219672 0.05786207 0.1796482 1.177723
8 0.697546 0 0 -0.1892971 0 0
9 0.87866 0 0 2.462027E-07 7.053038E-07 0.4858824
10 1.61306 0 0 0 0 0
11 0.716171 -0.01295307 0.01480058 0 0 0
12 0.908364 0 -0.7 -1.31933 -1.163926 -1.881538
13 -0.988649 0 -0.21967 -0.05839602 0.1076338 0.8117815
14 -0.69816 0 0 -0.3183469 0 0
15 -0.878661 0 0 4.262752E-07 5.835496E-07 0.3950286
16 -1.613063 0 0 0 0 0
17 -0.720997 0.003712081 -0.01700633 0 0 0
18 1.327899 0 0 -0.02279885 0.0007936208 0.01481172
19 0.03170101 0 0 -0.4975693 -0.02054691 -0.06114895
20 5.399332 -0.580462 2.17593 0 0 0
21 5.399315 -0.5804622 -2.175933 0 0 3.141593
22 0 0 0 0 0 0
23 1.426178 3.512926 0 0 0 1.570796
24 3.057939 0.0778584 0 -1.570796 -1.570796 0
25 0 0 0 1.66268 0.1121435 -1.566334
26 -0.063815 0 -1.133617 -0.04827756 0.0311603 0.1370747
27 0.856682 -0.00300495 0 -0.04821514 0.02422277 0.1567565
28 1.94 0 0 0 0 -0.2461337
29 0.182077 4.48999E-06 0 0 0 -0.2559996
30 0.565037 0 0 0.01101176 -0.03960134 0.3179264
31 0.17727 0.3363641 0 0 0 1.570796
32 -0.063815 0 1.133617 0.04744378 -0.03135067 -2.989809
33 -0.856682 0.00299782 0 0.04772609 -0.02375284 0.1723598
34 -1.94 0 0 0 0 -0.2285303
35 -0.182077 0 0 0 0 -0.2384575
36 -0.565037 0 0 -0.01049046 0.03661671 0.2510394
37 -0.17727 -0.3363641 0 4.547474E-13 -8.697612E-06 1.570796
39 -0.831173 -1.731595 0 -0.117634 -0.1789283 -1.671552
40 2.130095 0 0 -0.1336112 -0.1719299 -0.7938054
time 16
0 0 0 0 0 0 0
1 0 0 0 0 0 0
2 -0.1501628 4.744485 -0.06381825 0 0 0
3 0 0 0 1.858095 -0.08311674 1.482167
4 2.169108 0 0 0.1155337 0.001691711 0.09043755
5 1.57372 0 0 0.1114272 -0.005685523 0.07587478
6 0.908364 0 0.7 -1.964484 -1.161263 1.898616
7 0.989264 0 0.219672 0.03926663 0.1372074 1.21199
8 0.697546 0 0 -0.1711556 0 0
9 0.87866 0 0 2.462021E-07 7.053029E-07 0.4383068
10 1.61306 0 0 0 0 0
11 0.7153445 -0.01167469 0.01315171 0 0 0
12 0.908364 0 -0.7 -1.326668 -1.177912 -1.866911
13 -0.988649 0 -0.21967 -0.05026996 0.1275755 0.943637
14 -0.69816 0 0 -0.3495148 0 0
15 -0.878661 0 0 4.262773E-07 5.835515E-07 0.2888189
16 -1.613063 0 0 0 0 0
17 -0.7195777 0.004450644 -0.01489854 0 0 0
18 1.327899 0 0 -0.02253792 0.0001302426 0.01818673
19 0.03170101 0 0 -0.5031448 -0.01921716 -0.01718067
20 5.399332 -0.580462 2.17593 0 0 0
21 5.399315 -0.5804622 -2.175933 0 0 3.141593
22 0 0 0 0 0 0
23 1.426178 3.512926 0 0 0 1.570796
24 3.057939 0.0778584 0 -1.570796 -1.570796 0
25 0 0 0 1.663018 0.1142127 -1.566558
26 -0.063815 0 -1.133617 -0.04817319 0.03138093 0.1388712
27 0.856682 -0.00300495 0 -0.04811129 0.0241455 0.1587961
28 1.94 0 0 0 0 -0.2489869
29 0.182077 4.48999E-06 0 0 0 -0.2588453
30 0.565037 0 0 0.0104228 -0.03962649 0.3224318
31 0.17727 0.3363641 0 0 0 1.570796
32 -0.063815 0 1.133617 0.04738904 -0.03154756 -2.987586
33 -0.856682 0.00299782 0 0.04761218 -0.02365831 0.1748847
34 -1.94 0 0 0 0 -0.2324933
35 -0.182077 0 0 0 0 -0.2424087
36 -0.565037 0 0 -0.009919241 0.03620389 0.2553406
37 -0.17727 -0.3363641 0 4.547474E-13 -8.697612E-06 1.570796
39 -0.831173 -1.731595 0 -0.1093061 -0.1827903 -1.696404
40 2.130095 0 0 -0.1300783 -0.1721806 -0.8197452
time 17
0 0 0 0 0 0 0
1 0 0 0 0 0 0
2 -0.1440899 4.747377 -0.06774119 0 0 0
3 0 0 0 1.848578 -0.07998496 1.484689
4 2.169108 0 0 0.1126175 0.004884345 0.08223096
5 1.57372 0 0 0.1084292 -0.003466503 0.0684652
6 0.908364 0 0.7 -1.965907 -1.160742 1.903314
7 0.989264 0 0.219672 0.02199392 0.1018282 1.238676
8 0.697546 0 0 -0.1545855 0 0
9 0.87866 0 0 2.462025E-07 7.053036E-07 0.4010353
10 1.61306 0 0 0 0 0
11 0.7143635 -0.0103191 0.01176216 0 0 0
12 0.908364 0 -0.7 -1.338505 -1.193014 -1.847766
13 -0.988649 0 -0.21967 -0.0420738 0.1443074 1.046805
14 -0.69816 0 0 -0.3763145 0 0
15 -0.878661 0 0 4.262759E-07 5.835501E-07 0.2093741
16 -1.613063 0 0 0 0 0
17 -0.7179856 0.004921611 -0.01272236 0 0 0
18 1.327899 0 0 -0.0223019 -0.0006468711 0.02137063
19 0.03170101 0 0 -0.4922447 -0.02336289 0.02194695
20 5.399332 -0.580462 2.17593 0 0 0
21 5.399315 -0.5804622 -2.175933 0 0 3.141593
22 0 0 0 0 0 0
23 1.426178 3.512926 0 0 0 1.570796
24 3.057939 0.0778584 0 -1.570796 -1.570796 0
25 0 0 0 1.660314 0.11131 -1.567234
26 -0.063815 0 -1.133617 -0.04666265 0.03030184 0.1368111
27 0.856682 -0.00300495 0 -0.04660076 0.0233311 0.1563022
28 1.94 0 0 0 0 -0.2452504
29 0.182077 4.48999E-06 0 0 0 -0.2551212
30 0.565037 0 0 0.00935609 -0.03790574 0.3161886
31 0.17727 0.3363641 0 0 0 1.570796
32 -0.063815 0 1.133617 0.04598416 -0.03040558 -2.989687
33 -0.856682 0.00299782 0 0.04612745 -0.02283593 0.1724021
34 -1.94 0 0 0 0 -0.2287289
35 -0.182077 0 0 0 0 -0.2386538
36 -0.565037 0 0 -0.008898985 0.03449811 0.2500678
37 -0.17727 -0.3363641 0 4.547474E-13 -8.697612E-06 1.570796
39 -0.831173 -1.731595 0 -0.0998704 -0.1856785 -1.70669
40 2.130095 0 0 -0.1246819 -0.1744653 -0.8532075
time 18
0 0 0 0 0 0 0
1 0 0 0 0 0 0
2 -0.1274922 4.754894 -0.07803279 0 0 0
3 0 0 0 1.826349 -0.07444853 1.49229
4 2.169108 0 0 0.1064056 0.008129517 0.07363461
5 1.57372 0 0 0.1022935 -0.0009408233 0.06062892
6 0.908364 0 0.7 -1.967381 -1.16014 1.908268
7 0.989264 0 0.219672 0.009716607 0.08003373 1.247556
8 0.697546 0 0 -0.1434059 0 0
9 0.87866 0 0 2.462028E-07 7.053039E-07 0.38746
10 1.61306 0 0 0 0 0
11 0.7132378 -0.008927046 0.01060948 0 0 0
12 0.908364 0 -0.7 -1.358468 -1.210099 -1.822348
13 -0.988649 0 -0.21967 -0.03674981 0.1540181 1.098241
14 -0.69816 0 0 -0.3916929 0 0
15 -0.878661 0 0 4.262765E-07 5.835508E-07 0.1772469
16 -1.613063 0 0 0 0 0
17 -0.7162471 0.005168726 -0.01049676 0 0 0
18 1.327899 0 0 -0.02215285 -0.001524738 0.02408722
19 0.03170101 0 0 -0.4592896 -0.03414904 0.05129276
20 5.399332 -0.580462 2.17593 0 0 0
21 5.399315 -0.5804622 -2.175933 0 0 3.141593
22 0 0 0 0 0 0
23 1.426178 3.512926 0 0 0 1.570796
24 3.057939 0.0778584 0 -1.570796 -1.570796 0
25 0 0 0 1.653693 0.1027568 -1.568791
26 -0.063815 0 -1.133617 -0.04341579 0.02751529 0.1314209
27 0.856682 -0.00300495 0 -0.04335382 0.02159564 0.1498753
28 1.94 0 0 0 0 -0.2360997
29 0.182077 4.48999E-06 0 0 0 -0.2460006
30 0.565037 0 0 0.007950177 -0.03378278 0.3007909
31 0.17727 0.3363641 0 0 0 1.570796
32 -0.063815 0 1.133617 0.04290073 -0.02750469 -2.99679
33 -0.856682 0.00299782 0 0.04294848 -0.02110624 0.1641584
34 -1.94 0 0 0 0 -0.2181934
35 -0.182077 0 0 0 0 -0.2281557
36 -0.565037 0 0 -0.007556314 0.03115195 0.2365464
37 -0.17727 -0.3363641 0 4.547474E-13 -8.697612E-06 1.570796
39 -0.831173 -1.731595 0 -0.08958251 -0.1864079 -1.704273
40 2.130095 0 0 -0.117686 -0.1781802 -0.8862006
time 19
0 0 0 0 0 0 0
1 0 0 0 0 0 0
2 -0.1036072 4.765493 -0.09256132 0 0 0
3 0 0 0 1.794414 -0.06713644 1.503317
4 2.169108 0 0 0.09626729 0.01135706 0.06431147
5 1.57372 0 0 0.09241288 0.001875643 0.05246426
6 0.908364 0 0.7 -1.969002 -1.159463 1.913537
7 0.989264 0 0.219672 0.002713747 0.07016698 1.2302
8 0.697546 0 0 -0.139369 0 0
9 0.87866 0 0 2.462019E-07 7.053025E-07 0.394053
10 1.61306 0 0 0 0 0
11 0.7119773 -0.007391138 0.009671245 0 0 0
12 0.908364 0 -0.7 -1.392181 -1.230744 -1.784323
13 -0.988649 0 -0.21967 -0.03724018 0.1528966 1.095336
14 -0.69816 0 0 -0.3910179 0 0
15 -0.878661 0 0 4.262759E-07 5.835502E-07 0.2073036
16 -1.613063 0 0 0 0 0
17 -0.7143891 0.005235735 -0.008240676 0 0 0
18 1.327899 0 0 -0.0214944 -0.00249037 0.02602245
19 0.03170101 0 0 -0.4083474 -0.04854075 0.07196599
20 5.399332 -0.580462 2.17593 0 0 0
21 5.399315 -0.5804622 -2.175933 0 0 3.141593
22 0 0 0 0 0 0
23 1.426178 3.512926 0 0 0 1.570796
24 3.057939 0.0778584 0 -1.570796 -1.570796 0
25 0 0 0 1.643232 0.08995198 -1.570993
26 -0.063815 0 -1.133617 -0.03810178 0.02347962 0.1235442
27 0.856682 -0.00300495 0 -0.03803966 0.0187545 0.1405356
28 1.94 0 0 0 0 -0.2227113
29 0.182077 4.48999E-06 0 0 0 -0.2326576
30 0.565037 0 0 0.006343545 -0.02754752 0.2778264
31 0.17727 0.3363641 0 0 0 1.570796
32 -0.063815 0 1.133617 0.03781034 -0.02336806 -3.00788
33 -0.856682 0.00299782 0 0.03774545 -0.01828591 0.1513448
34 -1.94 0 0 0 0 -0.2020266
35 -0.182077 0 0 0 0 -0.2120449
36 -0.565037 0 0 -0.006018092 0.02581983 0.2161146
37 -0.17727 -0.3363641 0 4.547474E-13 -8.697612E-06 1.570796
39 -0.831173 -1.731595 0 -0.07815842 -0.1777362 -1.693149
40 2.130095 0 0 -0.1093547 -0.1822488 -0.9107297
time 20
0 0 0 0 0 0 0
1 0 0 0 0 0 0
2 -0.07600987 4.777637 -0.109195 0 0 0
3 0 0 0 1.755776 -0.05867808 1.516571
4 2.169108 0 0 0.08261821 0.01449693 0.05407161
5 1.57372 0 0 0.07922255 0.004966531 0.04407854
6 0.908364 0 0.7 -1.970869 -1.158716 1.919182
7 0.989264 0 0.219672 -0.001817934 0.06856371 1.18901
8 0.697546 0 0 -0.1408693 0 0
9 0.87866 0 0 2.462029E-07 7.053042E-07 0.4161627
10 1.61306 0 0 0 0 0
11 0.710592 -0.005646648 0.00892503 0 0 0
12 0.908364 0 -0.7 -1.446197 -1.255968 -1.726293
13 -0.988649 0 -0.21967 -0.04404217 0.1397853 1.053454
14 -0.69816 0 0 -0.3777178 0 0
15 -0.878661 0 0 4.262742E-07 5.835483E-07 0.2902205
16 -1.613063 0 0 0 0 0
17 -0.7124382 0.005166381 -0.005973068 0 0 0
18 1.327899 0 0 -0.01997654 -0.003530831 0.02643019
19 0.03170101 0 0 -0.3448497 -0.06305446 0.08578132
20 5.399332 -0.580462 2.17593 0 0 0
21 5.399315 -0.5804622 -2.175933 0 0 3.141593
22 0 0 0 0 0 0
23 1.426178 3.512926 0 0 0 1.570796
24 3.057939 0.0778584 0 -1.570796 -1.570796 0
25 0 0 0 1.630391 0.07431273 -1.573605
26 -0.063815 0 -1.133617 -0.03114481 0.01919701 0.1140241
27 0.856682 -0.00300495 0 -0.03108358 0.01544824 0.1293065
28 1.94 0 0 0 0 -0.2062629
29 0.182077 4.48999E-06 0 0 0 -0.2162656
30 0.565037 0 0 0.004674731 -0.02058812 0.2494255
31 0.17727 0.3363641 0 0 0 1.570796
32 -0.063815 0 1.133617 0.03104281 -0.01901016 -3.021862
33 -0.856682 0.00299782 0 0.03095108 -0.01504951 0.1352555
34 -1.94 0 0 0 0 -0.1813743
35 -0.182077 0 0 0 0 -0.1914657
36 -0.565037 0 0 -0.004410936 0.01919402 0.1900971
37 -0.17727 -0.3363641 0 4.547474E-13 -8.697612E-06 1.570796
39 -0.831173 -1.731595 0 -0.06544984 -0.1537729 -1.677319
40 2.130095 0 0 -0.09995172 -0.1856098 -0.9209846
time 21
0 0 0 0 0 0 0
1 0 0 0 0 0 0
2 -0.0482752 4.789783 -0.1258021 0 0 0
3 0 0 0 1.713475 -0.04970177 1.530856
4 2.169108 0 0 0.06707024 0.01747917 0.04346539
5 1.57372 0 0 0.06427443 0.008315588 0.03557003
6 0.908364 0 0.7 -1.973079 -1.157817 1.925261
7 0.989264 0 0.219672 -0.004829462 0.07155963 1.130007
8 0.697546 0 0 -0.146688 0 0
9 0.87866 0 0 2.462027E-07 7.05304E-07 0.4491316
10 1.61306 0 0 0 0 0
11 0.7090918 -0.003798683 0.008348398 0 0 0
12 0.908364 0 -0.7 -1.525547 -1.284573 -1.643218
13 -0.988649 0 -0.21967 -0.05397147 0.1193842 0.9850755
14 -0.69816 0 0 -0.3570228 0 0
15 -0.878661 0 0 4.262766E-07 5.835508E-07 0.4124777
16 -1.613063 0 0 0 0 0
17 -0.7104208 0.00500441 -0.003712881 0 0 0
18 1.327899 0 0 -0.01778724 -0.004808162 0.02513197
19 0.03170101 0 0 -0.274234 -0.07420733 0.094555
20 5.399332 -0.580462 2.17593 0 0 0
21 5.399315 -0.5804622 -2.175933 0 0 3.141593
22 0 0 0 0 0 0
23 1.426178 3.512926 0 0 0 1.570796
24 3.057939 0.0778584 0 -1.570796 -1.570796 0
25 0 0 0 1.616376 0.05725609 -1.576393
26 -0.063815 0 -1.133617 -0.02358883 0.01507437 0.1036987
27 0.856682 -0.00300495 0 -0.0235307 0.01259801 0.1172099
28 1.94 0 0 0 0 -0.1879274
29 0.182077 4.48999E-06 0 0 0 -0.197992
30 0.565037 0 0 0.003082212 -0.0136837 0.2187757
31 0.17727 0.3363641 0 0 0 1.570796
32 -0.063815 0 1.133617 0.02365436 -0.01483978 -3.03764
33 -0.856682 0.00299782 0 0.02353776 -0.01228619 0.117176
34 -1.94 0 0 0 0 -0.1573793
35 -0.182077 0 0 0 0 -0.1675515
36 -0.565037 0 0 -0.002861651 0.01267817 0.1598288
37 -0.17727 -0.3363641 0 4.547474E-13 -8.697612E-06 1.570796
39 -0.831173 -1.731595 0 -0.05216521 -0.1184342 -1.658991
40 2.130095 0 0 -0.08974131 -0.1866046 -0.9184835
time 22
0 0 0 0 0 0 0
1 0 0 0 0 0 0
2 -0.02397818 4.800395 -0.1402509 0 0 0
3 0 0 0 1.670973 -0.04083743 1.544971
4 2.169108 0 0 0.05078659 0.02023445 0.03304406
5 1.57372 0 0 0.04866652 0.01190543 0.02704113
6 0.908364 0 0.7 -1.975725 -1.156744 1.931832
7 0.989264 0 0.219672 -0.007271811 0.07719866 1.059215
8 0.697546 0 0 -0.1556026 0 0
9 0.87866 0 0 2.462028E-07 7.05304E-07 0.4883067
10 1.61306 0 0 0 0 0
11 0.7074865 -0.001952348 0.007918917 0 0 0
12 0.908364 0 -0.7 -1.633809 -1.313125 -1.535295
13 -0.988649 0 -0.21967 -0.06444807 0.09667434 0.8952431
14 -0.69816 0 0 -0.3341608 0 0
15 -0.878661 0 0 4.262766E-07 5.835507E-07 0.5605483
16 -1.613063 0 0 0 0 0
17 -0.708364 0.004793567 -0.001479065 0 0 0
18 1.327899 0 0 -0.01514021 -0.006397339 0.02250414
19 0.03170101 0 0 -0.2019277 -0.08018151 0.1000997
20 5.399332 -0.580462 2.17593 0 0 0
21 5.399315 -0.5804622 -2.175933 0 0 3.141593
22 0 0 0 0 0 0
23 1.426178 3.512926 0 0 0 1.570796
24 3.057939 0.0778584 0 -1.570796 -1.570796 0
25 0 0 0 1.602391 0.04019967 -1.579121
26 -0.063815 0 -1.133617 -0.01609424 0.0115231 0.09343472
27 0.856682 -0.00300495 0 -0.01603638 0.01035745 0.1052685
28 1.94 0 0 0 0 -0.1707395
29 0.182077 4.48999E-06 0 0 0 -0.1808616
30 0.565037 0 0 0.001704558 -0.007614095 0.1909158
31 0.17727 0.3363641 0 0 0 1.570796
32 -0.063815 0 1.133617 0.01629672 -0.01126571 -3.054119
33 -0.856682 0.00299782 0 0.01615573 -0.01013864 0.09840121
34 -1.94 0 0 0 0 -0.1304866
35 -0.182077 0 0 0 0 -0.1407506
36 -0.565037 0 0 -0.001496947 0.006990632 0.1263307
37 -0.17727 -0.3363641 0 4.547474E-13 -8.697612E-06 1.570796
39 -0.831173 -1.731595 0 -0.03901292 -0.07627054 -1.638851
40 2.130095 0 0 -0.07850855 -0.1776495 -0.9072089
time 23
0 0 0 0 0 0 0
1 0 0 0 0 0 0
2 -0.006693855 4.80793 -0.1504095 0 0 0
3 0 0 0 1.631907 -0.0327132 1.557719
4 2.169108 0 0 0.03492314 0.02269074 0.02335403
5 1.57372 0 0 0.03349457 0.01571558 0.01909455
6 0.908364 0 0.7 -1.978909 -1.155619 1.938556
7 0.989264 0 0.219672 -0.01009599 0.08516402 0.9826563
8 0.697546 0 0 -0.1663921 0 0
9 0.87866 0 0 2.462029E-07 7.053041E-07 0.5299642
10 1.61306 0 0 0 0 0
11 0.7058776 -0.0002127485 0.007614157 0 0 0
12 0.908364 0 -0.7 -1.768774 -1.339287 -1.402962
13 -0.988649 0 -0.21967 -0.07289185 0.07663712 0.7934922
14 -0.69816 0 0 -0.3143662 0 0
15 -0.878661 0 0 4.262763E-07 5.835507E-07 0.7209098
16 -1.613063 0 0 0 0 0
17 -0.70647 0.004577597 0.0007094294 0 0 0
18 1.327899 0 0 -0.01218869 -0.008092355 0.01883562
19 0.03170101 0 0 -0.1333741 -0.08116022 0.1036859
20 5.399332 -0.580462 2.17593 0 0 0
21 5.399315 -0.5804622 -2.175933 0 0 3.141593
22 0 0 0 0 0 0
23 1.426178 3.512926 0 0 0 1.570796
24 3.057939 0.0778584 0 -1.570796 -1.570796 0
25 0 0 0 1.589642 0.02456087 -1.581556
26 -0.063815 0 -1.133617 -0.00931302 0.008948799 0.08467685
27 0.856682 -0.00300495 0 -0.009255778 0.008879968 0.09536507
28 1.94 0 0 0 0 -0.1585337
29 0.182077 4.48999E-06 0 0 0 -0.1687015
30 0.565037 0 0 0.0006802901 -0.003158673 0.1708826
31 0.17727 0.3363641 0 0 0 1.570796
32 -0.063815 0 1.133617 0.009621562 -0.00869672 -3.069175
33 -0.856682 0.00299782 0 0.009453443 -0.008748489 0.08100525
34 -1.94 0 0 0 0 -0.1066504
35 -0.182077 0 0 0 0 -0.1170006
36 -0.565037 0 0 -0.0004436016 0.002850194 0.09730217
37 -0.17727 -0.3363641 0 4.547474E-13 -8.697612E-06 1.570796
39 -0.831173 -1.731595 0 -0.02670137 -0.03183195 -1.618621
40 2.130095 0 0 -0.06622498 -0.1534755 -0.8911365
time 24
0 0 0 0 0 0 0
1 0 0 0 0 0 0
2 2.816319E-06 4.810849 -0.1541463 0 0 0
3 0 0 0 1.599913 -0.02595862 1.567902
4 2.169108 0 0 0.02064974 0.02478396 0.01495109
5 1.57372 0 0 0.0198798 0.01942427 0.01237261
6 0.908364 0 0.7 -1.982228 -1.154561 1.944613
7 0.989264 0 0.219672 -0.01353619 0.09425352 0.9056338
8 0.697546 0 0 -0.1778372 0 0
9 0.87866 0 0 2.462022E-07 7.053032E-07 0.5719699
10 1.61306 0 0 0 0 0
11 0.7044331 0.001315011 0.007411685 0 0 0
12 0.908364 0 -0.7 -1.928359 -1.360715 -1.246886
13 -0.988649 0 -0.21967 -0.07840598 0.06234807 0.6893604
14 -0.69816 0 0 -0.3011227 0 0
15 -0.878661 0 0 4.262763E-07 5.835507E-07 0.8800398
16 -1.613063 0 0 0 0 0
17 -0.7049513 0.004400243 0.002833653 0 0 0
18 1.327899 0 0 -0.009155365 -0.009715931 0.01451712
19 0.03170101 0 0 -0.07399876 -0.07714136 0.1054599
20 5.399332 -0.580462 2.17593 0 0 0
21 5.399315 -0.5804622 -2.175933 0 0 3.141593
22 0 0 0 0 0 0
23 1.426178 3.512926 0 0 0 1.570796
24 3.057939 0.0778584 0 -1.570796 -1.570796 0
25 0 0 0 1.579334 0.01175618 -1.583462
26 -0.063815 0 -1.133617 -0.00390034 0.00775888 0.07883485
27 0.856682 -0.00300495 0 -0.003844333 0.008319256 0.08894177
28 1.94 0 0 0 0 -0.1551495
29 0.182077 4.48999E-06 0 0 0 -0.1653272
30 0.565037 0 0 0.0003560465 -0.001096565 0.163698
31 0.17727 0.3363641 0 0 0 1.570796
32 -0.063815 0 1.133617 0.004280578 -0.007541612 -3.080112
33 -0.856682 0.00299782 0 0.004080483 -0.008258752 0.06832544
34 -1.94 0 0 0 0 -0.09478324
35 -0.182077 0 0 0 0 -0.1051707
36 -0.565037 0 0 -0.0001409925 0.0009750379 0.08407269
37 -0.17727 -0.3363641 0 4.547474E-13 -8.697612E-06 1.570796
39 -0.831173 -1.731595 0 -0.01593898 0.01033126 -1.600023
40 2.130095 0 0 -0.05343411 -0.1178645 -0.8731648
time 25
0 0 0 0 0 0 0
1 0 0 0 0 0 0
2 -0.006032517 4.808203 -0.1497201 0 0 0
3 0 0 0 1.578627 -0.02120234 1.574319
4 2.169108 0 0 0.009117492 0.02643709 0.008378336
5 1.57372 0 0 0.008905495 0.02238893 0.007259392
6 0.908364 0 0.7 -1.985023 -1.153691 1.949453
7 0.989264 0 0.219672 -0.01697638 0.1032651 0.8341315
8 0.697546 0 0 -0.1887173 0 0
9 0.87866 0 0 2.462029E-07 7.053042E-07 0.6106029
10 1.61306 0 0 0 0 0
11 0.703263 0.002525823 0.007289069 0 0 0
12 0.908364 0 -0.7 -2.09254 -1.375074 -1.087124
13 -0.988649 0 -0.21967 -0.08217884 0.05286263 0.592382
14 -0.69816 0 0 -0.2934744 0 0
15 -0.878661 0 0 4.262765E-07 5.835508E-07 1.027062
16 -1.613063 0 0 0 0 0
17 -0.7038497 0.004305252 0.004614515 0 0 0
18 1.327899 0 0 -0.006205154 -0.01105133 0.009851809
19 0.03170101 0 0 -0.02761544 -0.06812032 0.1051782
20 5.399332 -0.580462 2.17593 0 0 0
21 5.399315 -0.5804622 -2.175933 0 0 3.141593
22 0 0 0 0 0 0
23 1.426178 3.512926 0 0 0 1.570796
24 3.057939 0.0778584 0 -1.570796 -1.570796 0
25 0 0 0 1.572671 0.003203457 -1.584603
26 -0.063815 0 -1.133617 -0.0005125093 0.008361204 0.07669208
27 0.856682 -0.00300495 0 -0.0004571497 0.008829126 0.08680423
28 1.94 0 0 0 0 -0.1624552
29 0.182077 4.48999E-06 0 0 0 -0.1726069
30 0.565037 0 0 0.0008891083 -0.002207375 0.1732949
31 0.17727 0.3363641 0 0 0 1.570796
32 -0.063815 0 1.133617 0.0009254626 -0.008209174 -3.084979
33 -0.856682 0.00299782 0 0.0006844935 -0.008809028 0.06350762
34 -1.94 0 0 0 0 -0.1001236
35 -0.182077 0 0 0 0 -0.110493
36 -0.565037 0 0 -0.0007006859 0.002083824 0.09449742
37 -0.17727 -0.3363641 0 4.547474E-13 -8.697612E-06 1.570796
39 -0.831173 -1.731595 0 -0.007434166 0.0456689 -1.584777
40 2.130095 0 0 -0.04067947 -0.07555413 -0.8539388
time 26
0 0 0 0 0 0 0
1 0 0 0 0 0 0
2 -0.02216701 4.801117 -0.1384068 0 0 0
3 0 0 0 1.571778 -0.01966165 1.575775
4 2.169108 0 0 0.00149138 0.02757773 0.004187643
5 1.57372 0 0 0.001671066 0.02429043 0.00415147
6 0.908364 0 0.7 -1.986878 -1.153131 1.95253
7 0.989264 0 0.219672 -0.0200924 0.1109964 0.7751877
8 0.697546 0 0 -0.1978098 0 0
9 0.87866 0 0 2.462029E-07 7.053042E-07 0.6421368
10 1.61306 0 0 0 0 0
11 0.7024775 0.003314584 0.007223877 0 0 0
12 0.908364 0 -0.7 -2.238832 -1.38172 -0.9453227
13 -0.988649 0 -0.21967 -0.0845705 0.04713107 0.512091
14 -0.69816 0 0 -0.2899862 0 0
15 -0.878661 0 0 4.262766E-07 5.835508E-07 1.149497
16 -1.613063 0 0 0 0 0
17 -0.7032068 0.004336369 0.005672995 0 0 0
18 1.327899 0 0 -0.003552375 -0.01193765 0.005219915
19 0.03170101 0 0 -0.001980166 -0.05410693 0.1026195
20 5.399332 -0.580462 2.17593 0 0 0
21 5.399315 -0.5804622 -2.175933 0 0 3.141593
22 0 0 0 0 0 0
23 1.426178 3.512926 0 0 0 1.570796
24 3.057939 0.0778584 0 -1.570796 -1.570796 0
25 0 0 0 1.570859 0.0007157326 -1.584746
26 -0.063815 0 -1.133617 0.0001953166 0.01050591 0.07905839
27 0.856682 -0.00300495 0 0.0002505662 0.01056228 0.08974678
28 1.94 0 0 0 0 -0.1768073
29 0.182077 4.48999E-06 0 0 0 -0.1869082
30 0.565037 0 0 0.002065147 -0.006365429 0.1942013
31 0.17727 0.3363641 0 0 0 1.570796
32 -0.063815 0 1.133617 0.0002079161 -0.01037694 -3.081824
33 -0.856682 0.00299782 0 -8.456669E-05 -0.01054352 0.06808348
34 -1.94 0 0 0 0 -0.1190401
35 -0.182077 0 0 0 0 -0.1293406
36 -0.565037 0 0 -0.001913761 0.006208718 0.1227802
37 -0.17727 -0.3363641 0 4.547474E-13 -8.697612E-06 1.570796
39 -0.831173 -1.731595 0 -0.001895335 0.06963081 -1.574604
40 2.130095 0 0 -0.02850461 -0.03128235 -0.8345568
time 27
0 0 0 0 0 0 0
1 0 0 0 0 0 0
2 -0.04481601 4.79117 -0.1226003 0 0 0
3 0 0 0 1.584281 -0.0215607 1.571069
4 2.169108 0 0 -0.001337369 0.02760525 0.003835171
5 1.57372 0 0 -0.001007465 0.02474408 0.003431072
6 0.908364 0 0.7 -1.987375 -1.153001 1.953291
7 0.989264 0 0.219672 -0.02255993 0.1162458 0.7358435
8 0.697546 0 0 -0.2038953 0 0
9 0.87866 0 0 2.46203E-07 7.053042E-07 0.6628491
10 1.61306 0 0 0 0 0
11 0.7021866 0.003576191 0.007193679 0 0 0
12 0.908364 0 -0.7 -2.343264 -1.383365 -0.8449137
13 -0.988649 0 -0.21967 -0.08594172 0.04410427 0.4580261
14 -0.69816 0 0 -0.289227 0 0
15 -0.878661 0 0 4.262767E-07 5.83551E-07 1.231437
16 -1.613063 0 0 0 0 0
17 -0.7030642 0.004410238 0.00584014 0 0 0
18 1.327899 0 0 -0.001373252 -0.01216245 0.0009411143
19 0.03170101 0 0 -0.008419468 -0.03509514 0.09411088
20 5.399332 -0.580462 2.17593 0 0 0
21 5.399315 -0.5804622 -2.175933 0 0 3.141593
22 0 0 0 0 0 0
23 1.426178 3.512926 0 0 0 1.570796
24 3.057939 0.0778584 0 -1.570796 -1.570796 0
25 0 0 0 1.575104 0.009653241 -1.583656
26 -0.063815 0 -1.133617 -0.002432238 0.01329722 0.0866881
27 0.856682 -0.00300495 0 -0.002376562 0.01302514 0.09858094
28 1.94 0 0 0 0 -0.192975
29 0.182077 4.48999E-06 0 0 0 -0.2030231
30 0.565037 0 0 0.003669839 -0.01231666 0.2192201
31 0.17727 0.3363641 0 0 0 1.570796
32 -0.063815 0 1.133617 0.002779625 -0.01316407 -3.068668
33 -0.856682 0.00299782 0 0.002421932 -0.01292711 0.08179004
34 -1.94 0 0 0 0 -0.1455448
35 -0.182077 0 0 0 0 -0.1557574
36 -0.565037 0 0 -0.003571401 0.01202429 0.1582803
37 -0.17727 -0.3363641 0 4.547474E-13 -8.697612E-06 1.570796
39 -0.831173 -1.731595 0 -0.001480126 0.07874005 -1.570795
40 2.130095 0 0 -0.017453 0.01021296 -0.8161136
end
