version 1
nodes
0 "Root" -1
1 "Trans_Root" 0
2 "Skl_Root" 1
3 "Spine_1" 2
4 "Spine_2" 3
5 "Spine_3" 4
6 "Clavicle_L" 5
7 "Arm_1_L" 6
8 "Arm_1_L_Sub" 7
9 "Arm_2_L" 8
10 "Wrist_L" 9
11 "Hand_L" 10
12 "Clavicle_R" 5
13 "Arm_1_R" 12
14 "Arm_1_R_Sub" 13
15 "Arm_2_R" 14
16 "Wrist_R" 15
17 "Hand_R" 16
18 "Neck" 5
19 "Head" 18
20 "Ear_1_L" 19
21 "Ear_1_R" 19
22 "FaceRoot" 19
23 "Nose" 22
24 "Feel" 19
25 "Waist" 2
26 "Leg_1_L" 25
27 "Leg_1_L_Sub" 26
28 "Leg_2_L" 27
29 "Leg_2_L_Sub" 28
30 "Ankle_L" 29
31 "Toe_L" 30
32 "Leg_1_R" 25
33 "Leg_1_R_Sub" 32
34 "Leg_2_R" 33
35 "Leg_2_R_Sub" 34
36 "Ankle_R" 35
37 "Toe_R" 36
38 "TailRoot" 25
39 "Tail_1" 38
40 "Tail_2" 39
41 "Z_Tail" 40
end
skeleton
time 0
0 0 0 0 0 0 0
1 0 0 0 0 0 0
2 -0.4557916 4.780272 0.3938653 0 0 0
3 0 0 0 1.571813 0.03614808 1.49925
4 2.169108 0 0 0.004169974 0.05243913 0.0002129561
5 1.57372 0 0 0.004626365 0.0469655 0.000622349
6 0.908364 0 0.7 1.779015 -1.559476 -1.962288
7 0.989264 0 0.219672 0.4154729 -0.618094 -0.1748922
8 0.697546 0 0 1.078518 0 0
9 0.87866 0 0 1.309378E-06 1.169035E-06 1.683928
10 1.61306 0 0 0 0 0
11 0.7150637 0.001392014 0.004765379 0 0 0
12 0.908364 0 -0.7 2.840519 -1.223241 0.3600417
13 -0.988649 0 -0.21967 0.1223498 -0.6360776 0.04112321
14 -0.69816 0 0 0.4086983 0 0
15 -0.878661 0 0 -1.214584E-13 2.773388E-08 0.04556053
16 -1.613063 0 0 0 0 0
17 -0.6981331 0.007260153 0.01240102 0 0 0
18 1.327899 0 0 0.0003976829 -0.00856143 -0.03690529
19 0.03170101 0 0 -0.003613715 -0.06476071 0.08988593
20 5.399332 -0.580462 2.17593 0 0 0
21 5.399315 -0.5804622 -2.175933 0 0 3.141593
22 0 0 0 0 0 0
23 1.426178 3.512926 0 0 0 1.570796
24 3.057939 0.0778584 0 -1.570796 -1.570796 0
25 0 0 0 1.662771 -0.005597829 -1.635447
26 -0.063815 0 -1.133617 -0.2951192 0.1840522 -0.05356699
27 0.856682 -0.00300495 0 -0.2838603 0.2013279 0.03574383
28 1.94 0 0 0 0 -0.1154344
29 0.182077 4.48999E-06 0 0 0 -0.1257472
30 0.565037 0 0 0.1194102 -0.2946732 0.004116061
31 0.17727 0.3363641 0 0 0 1.677797
32 -0.063815 0 1.133617 -0.03876492 -0.08640587 3.107205
33 -0.856682 0.00299782 0 -0.03977801 -0.08415759 -0.02181329
34 -1.94 0 0 0 0 -0.05470228
35 -0.182077 0 0 0 0 -0.0652282
36 -0.565037 0 0 -0.03476172 0.1019383 0.1139226
37 -0.17727 -0.3363641 0 0 -8.697612E-06 1.626771
39 -0.831173 -1.731595 0 1.863143E-09 0.02313713 -1.58145
40 2.130095 0 0 0 0 0.004085255
time 1
0 0 0 0 0 0 0
1 0 0 0 0 0 0
2 -0.4565452 4.782825 0.3639627 0 0 0
3 0 0 0 1.572223 0.02788306 1.501
4 2.169108 0 0 0.004033628 0.04914019 -5.413423E-05
5 1.57372 0 0 0.004488613 0.0439988 0.0002907586
6 0.908364 0 0.7 1.648619 -1.559889 -1.831382
7 0.989264 0 0.219672 0.4154729 -0.618094 -0.1748922
8 0.697546 0 0 1.078518 0 0
9 0.87866 0 0 1.309378E-06 1.169035E-06 1.683928
10 1.61306 0 0 0 0 0
11 0.7141687 0.001355379 0.004498856 0 0 0
12 0.908364 0 -0.7 2.842149 -1.221944 0.3584912
13 -0.988649 0 -0.21967 0.1318551 -0.6318489 0.02563896
14 -0.69816 0 0 0.421777 0 0
15 -0.878661 0 0 -1.749711E-13 2.772584E-08 0.02823624
16 -1.613063 0 0 0 0 0
17 -0.6984144 0.006995282 0.01149184 0 0 0
18 1.327899 0 0 0.0003976476 -0.0126413 -0.03689072
19 0.03170101 0 0 -0.002461318 -0.05788147 0.07496504
20 5.399332 -0.580462 2.17593 0 0 0
21 5.399315 -0.5804622 -2.175933 0 0 3.141593
22 0 0 0 0 0 0
23 1.426178 3.512926 0 0 0 1.570796
24 3.057939 0.0778584 0 -1.570796 -1.570796 0
25 0 0 0 1.666624 -0.01025885 -1.637907
26 -0.063815 0 -1.133617 -0.2958232 0.1856444 -0.05302384
27 0.856682 -0.00300495 0 -0.2843702 0.202665 0.03681488
28 1.94 0 0 0 0 -0.117497
29 0.182077 4.48999E-06 0 0 0 -0.1278023
30 0.565037 0 0 0.117619 -0.292336 0.003126175
31 0.17727 0.3363641 0 0 0 1.675943
32 -0.063815 0 1.133617 -0.03684164 -0.08799575 3.105056
33 -0.856682 0.00299782 0 -0.03811592 -0.08564141 -0.02073972
34 -1.94 0 0 0 0 -0.04918452
35 -0.182077 0 0 0 0 -0.05972842
36 -0.565037 0 0 -0.03536303 0.1034649 0.09669895
37 -0.17727 -0.3363641 0 0 -8.697612E-06 1.628269
39 -0.831173 -1.731595 0 2.794414E-09 0.01786942 -1.595765
40 2.130095 0 0 0 0 -0.01111311
time 2
0 0 0 0 0 0 0
1 0 0 0 0 0 0
2 -0.4577971 4.784195 0.3346594 0 0 0
3 0 0 0 1.572468 0.01966815 1.502482
4 2.169108 0 0 0.003797042 0.04605603 0.001721097
5 1.57372 0 0 0.004232965 0.04128352 0.001682725
6 0.908364 0 0.7 1.51225 -1.560244 -1.695658
7 0.989264 0 0.219672 0.4154729 -0.618094 -0.1748922
8 0.697546 0 0 1.078518 0 0
9 0.87866 0 0 1.309378E-06 1.169035E-06 1.683928
10 1.61306 0 0 0 0 0
11 0.7136472 0.001199776 0.003830873 0 0 0
12 0.908364 0 -0.7 2.843777 -1.220937 0.3559101
13 -0.988649 0 -0.21967 0.140044 -0.6281422 0.01329198
14 -0.69816 0 0 0.4339593 0 0
15 -0.878661 0 0 4.464484E-14 2.774471E-08 0.01610593
16 -1.613063 0 0 0 0 0
17 -0.698741 0.006146128 0.01075795 0 0 0
18 1.327899 0 0 0.0003976988 -0.01690406 -0.03618621
19 0.03170101 0 0 -0.0008687584 -0.05036495 0.0576792
20 5.399332 -0.580462 2.17593 0 0 0
21 5.399315 -0.5804622 -2.175933 0 0 3.141593
22 0 0 0 0 0 0
23 1.426178 3.512926 0 0 0 1.570796
24 3.057939 0.0778584 0 -1.570796 -1.570796 0
25 0 0 0 1.669692 -0.01453054 -1.640031
26 -0.063815 0 -1.133617 -0.2964702 0.1870372 -0.05263506
27 0.856682 -0.00300495 0 -0.2847814 0.2037933 0.03768211
28 1.94 0 0 0 0 -0.11954
29 0.182077 4.48999E-06 0 0 0 -0.1298377
30 0.565037 0 0 0.1153028 -0.290392 0.003579123
31 0.17727 0.3363641 0 0 0 1.672753
32 -0.063815 0 1.133617 -0.03550975 -0.08946468 3.103786
33 -0.856682 0.00299782 0 -0.03694914 -0.08699884 -0.01967238
34 -1.94 0 0 0 0 -0.04576418
35 -0.182077 0 0 0 0 -0.05632167
36 -0.565037 0 0 -0.03583901 0.1051232 0.08347395
37 -0.17727 -0.3363641 0 -4.547474E-13 -8.697612E-06 1.62893
39 -0.831173 -1.731595 0 0 0.01172533 -1.608133
40 2.130095 0 0 0 0 -0.02575441
time 3
0 0 0 0 0 0 0
1 0 0 0 0 0 0
2 -0.4595557 4.783547 0.3076843 0 0 0
3 0 0 0 1.572563 0.01181102 1.503702
4 2.169108 0 0 0.0034733 0.04321842 0.005631954
5 1.57372 0 0 0.003875776 0.0388499 0.004877447
6 0.908364 0 0.7 1.379479 -1.560554 -1.564596
7 0.989264 0 0.219672 0.4154729 -0.618094 -0.1748922
8 0.697546 0 0 1.078518 0 0
9 0.87866 0 0 1.309378E-06 1.169035E-06 1.683928
10 1.61306 0 0 0 0 0
11 0.7134365 0.0009520596 0.002868493 0 0 0
12 0.908364 0 -0.7 2.845582 -1.220391 0.3521216
13 -0.988649 0 -0.21967 0.1469445 -0.6251402 0.00360608
14 -0.69816 0 0 0.4446974 0 0
15 -0.878661 0 0 -9.875434E-14 2.771966E-08 0.009982944
16 -1.613063 0 0 0 0 0
17 -0.6990975 0.004873793 0.01018602 0 0 0
18 1.327899 0 0 0.000397407 -0.02121165 -0.03482182
19 0.03170101 0 0 0.001086846 -0.04242582 0.03887253
20 5.399332 -0.580462 2.17593 0 0 0
21 5.399315 -0.5804622 -2.175933 0 0 3.141593
22 0 0 0 0 0 0
23 1.426178 3.512926 0 0 0 1.570796
24 3.057939 0.0778584 0 -1.570796 -1.570796 0
25 0 0 0 1.671958 -0.01836978 -1.641822
26 -0.063815 0 -1.133617 -0.2970522 0.1880325 -0.0527042
27 0.856682 -0.00300495 0 -0.2850586 0.2047209 0.03825047
28 1.94 0 0 0 0 -0.1205218
29 0.182077 4.48999E-06 0 0 0 -0.1308171
30 0.565037 0 0 0.1123878 -0.2889911 0.006079052
31 0.17727 0.3363641 0 0 0 1.666809
32 -0.063815 0 1.133617 -0.03472375 -0.09080665 3.104225
33 -0.856682 0.00299782 0 -0.03624897 -0.08822927 -0.01843734
34 -1.94 0 0 0 0 -0.04545574
35 -0.182077 0 0 0 0 -0.05601602
36 -0.565037 0 0 -0.03620389 0.1068534 0.07690754
37 -0.17727 -0.3363641 0 -4.547474E-13 -8.697612E-06 1.627916
39 -0.831173 -1.731595 0 0 0.00502784 -1.616888
40 2.130095 0 0 0 0 -0.03809903
time 4
0 0 0 0 0 0 0
1 0 0 0 0 0 0
2 -0.4618295 4.780049 0.2847661 0 0 0
3 0 0 0 1.572522 0.004619585 1.504663
4 2.169108 0 0 0.003077731 0.04068622 0.01177665
5 1.57372 0 0 0.003430994 0.03670479 0.009951624
6 0.908364 0 0.7 1.263416 -1.560813 -1.451022
7 0.989264 0 0.219672 0.4154729 -0.618094 -0.1748922
8 0.697546 0 0 1.078518 0 0
9 0.87866 0 0 1.309378E-06 1.169035E-06 1.683928
10 1.61306 0 0 0 0 0
11 0.7134737 0.0006390866 0.001718775 0 0 0
12 0.908364 0 -0.7 2.84774 -1.220478 0.3469479
13 -0.988649 0 -0.21967 0.1525857 -0.6230311 -0.003895142
14 -0.69816 0 0 0.4534373 0 0
15 -0.878661 0 0 -7.734507E-13 2.749513E-08 0.006328851
16 -1.613063 0 0 0 0 0
17 -0.6994683 0.003339378 0.009762711 0 0 0
18 1.327899 0 0 0.000397691 -0.02546282 -0.03289233
19 0.03170101 0 0 0.003326661 -0.03425812 0.02075947
20 5.399332 -0.580462 2.17593 0 0 0
21 5.399315 -0.5804622 -2.175933 0 0 3.141593
22 0 0 0 0 0 0
23 1.426178 3.512926 0 0 0 1.570796
24 3.057939 0.0778584 0 -1.570796 -1.570796 0
25 0 0 0 1.673404 -0.02173309 -1.64328
26 -0.063815 0 -1.133617 -0.2975566 0.1884299 -0.05353367
27 0.856682 -0.00300495 0 -0.2851633 0.2054536 0.03842486
28 1.94 0 0 0 0 -0.1194022
29 0.182077 4.48999E-06 0 0 0 -0.1296998
30 0.565037 0 0 0.108802 -0.2882879 0.01122985
31 0.17727 0.3363641 0 0 0 1.656691
32 -0.063815 0 1.133617 -0.03443817 -0.09201562 3.107205
33 -0.856682 0.00299782 0 -0.03598288 -0.08932291 -0.01685872
34 -1.94 0 0 0 0 -0.0492717
35 -0.182077 0 0 0 0 -0.0598122
36 -0.565037 0 0 -0.03647728 0.1086145 0.07967407
37 -0.17727 -0.3363641 0 -4.547474E-13 -8.697612E-06 1.62439
39 -0.831173 -1.731595 0 -2.32831E-10 -0.001900081 -1.620363
40 2.130095 0 0 0 0 -0.0466057
time 5
0 0 0 0 0 0 0
1 0 0 0 0 0 0
2 -0.4646269 4.772866 0.2676336 0 0 0
3 0 0 0 1.572361 -0.001598001 1.50537
4 2.169108 0 0 0.002621172 0.03846407 0.01823029
5 1.57372 0 0 0.002918161 0.03491253 0.01541598
6 0.908364 0 0.7 1.173879 -1.561006 -1.364277
7 0.989264 0 0.219672 0.4154729 -0.618094 -0.1748922
8 0.697546 0 0 1.078518 0 0
9 0.87866 0 0 1.309378E-06 1.169035E-06 1.683928
10 1.61306 0 0 0 0 0
11 0.7136962 0.0002877124 0.0004887814 0 0 0
12 0.908364 0 -0.7 2.85043 -1.221371 0.3402112
13 -0.988649 0 -0.21967 0.1569966 -0.6220011 -0.009687974
14 -0.69816 0 0 0.4596293 0 0
15 -0.878661 0 0 -1.232712E-12 2.71604E-08 0.004256738
16 -1.613063 0 0 0 0 0
17 -0.699838 0.001703983 0.009474672 0 0 0
18 1.327899 0 0 0.0003975753 -0.029501 -0.03040332
19 0.03170101 0 0 0.005777753 -0.02613171 0.005822918
20 5.399332 -0.580462 2.17593 0 0 0
21 5.399315 -0.5804622 -2.175933 0 0 3.141593
22 0 0 0 0 0 0
23 1.426178 3.512926 0 0 0 1.570796
24 3.057939 0.0778584 0 -1.570796 -1.570796 0
25 0 0 0 1.674011 -0.02457684 -1.644405
26 -0.063815 0 -1.133617 -0.2979777 0.1880327 -0.05542758
27 0.856682 -0.00300495 0 -0.2850582 0.2059981 0.0381101
28 1.94 0 0 0 0 -0.1151344
29 0.182077 4.48999E-06 0 0 0 -0.1254509
30 0.565037 0 0 0.1044718 -0.2884324 0.01963561
31 0.17727 0.3363641 0 0 0 1.640982
32 -0.063815 0 1.133617 -0.0346075 -0.09308562 3.112437
33 -0.856682 0.00299782 0 -0.03612157 -0.09027813 -0.01476217
34 -1.94 0 0 0 0 -0.05820797
35 -0.182077 0 0 0 0 -0.06872799
36 -0.565037 0 0 -0.03667399 0.1103489 0.09443618
37 -0.17727 -0.3363641 0 4.547474E-13 -8.697612E-06 1.617514
39 -0.831173 -1.731595 0 -1.397037E-09 -0.008735449 -1.616888
40 2.130095 0 0 0 0 -0.04975808
time 6
0 0 0 0 0 0 0
1 0 0 0 0 0 0
2 -0.4679564 4.762326 0.255978 0 0 0
3 0 0 0 1.572095 -0.006534325 1.505827
4 2.169108 0 0 0.002117819 0.03659601 0.02339711
5 1.57372 0 0 0.002346306 0.03342793 0.01980373
6 0.908364 0 0.7 1.111586 -1.56116 -1.304364
7 0.989264 0 0.219672 0.4154729 -0.618094 -0.1748922
8 0.697546 0 0 1.078518 0 0
9 0.87866 0 0 1.309378E-06 1.169035E-06 1.683928
10 1.61306 0 0 0 0 0
11 0.7140411 -7.520674E-05 -0.0007144264 0 0 0
12 0.908364 0 -0.7 2.853827 -1.223241 0.3317357
13 -0.988649 0 -0.21967 0.1602056 -0.6222361 -0.01424865
14 -0.69816 0 0 0.4631609 0 0
15 -0.878661 0 0 -9.924353E-14 2.767185E-08 0.002929688
16 -1.613063 0 0 0 0 0
17 -0.7001909 0.0001287139 0.009308566 0 0 0
18 1.327899 0 0 0.0003973845 -0.03320781 -0.02742273
19 0.03170101 0 0 0.008341094 -0.01817295 -0.004935173
20 5.399332 -0.580462 2.17593 0 0 0
21 5.399315 -0.5804622 -2.175933 0 0 3.141593
22 0 0 0 0 0 0
23 1.426178 3.512926 0 0 0 1.570796
24 3.057939 0.0778584 0 -1.570796 -1.570796 0
25 0 0 0 1.673763 -0.02685825 -1.645199
26 -0.063815 0 -1.133617 -0.2983012 0.1866394 -0.05868784
27 0.856682 -0.00300495 0 -0.2847069 0.2063616 0.03721118
28 1.94 0 0 0 0 -0.1084205
29 0.182077 4.48999E-06 0 0 0 -0.1187572
30 0.565037 0 0 0.09932552 -0.2895799 0.03110055
31 0.17727 0.3363641 0 0 0 1.619203
32 -0.063815 0 1.133617 -0.03518625 -0.09401067 3.118043
33 -0.856682 0.00299782 0 -0.03663235 -0.09108464 -0.01197166
34 -1.94 0 0 0 0 -0.0707927
35 -0.182077 0 0 0 0 -0.08126298
36 -0.565037 0 0 -0.036811 0.1120066 0.1210468
37 -0.17727 -0.3363641 0 4.547474E-13 -8.697612E-06 1.607638
39 -0.831173 -1.731595 0 -2.328574E-09 -0.0151553 -1.606554
40 2.130095 0 0 0 0 -0.0459773
time 7
0 0 0 0 0 0 0
1 0 0 0 0 0 0
2 -0.4718263 4.751727 0.2481333 0 0 0
3 0 0 0 1.57174 -0.009881538 1.506039
4 2.169108 0 0 0.001581843 0.03512747 0.02727833
5 1.57372 0 0 0.001734503 0.03231097 0.02312198
6 0.908364 0 0.7 1.073186 -1.561253 -1.267627
7 0.989264 0 0.219672 0.4154729 -0.618094 -0.1748922
8 0.697546 0 0 1.078518 0 0
9 0.87866 0 0 1.309378E-06 1.169035E-06 1.683928
10 1.61306 0 0 0 0 0
11 0.7144455 -0.0004228153 -0.001783787 0 0 0
12 0.908364 0 -0.7 2.858111 -1.22626 0.3213439
13 -0.988649 0 -0.21967 0.1622414 -0.6239222 -0.01879187
14 -0.69816 0 0 0.4646436 0 0
15 -0.878661 0 0 -5.966269E-13 2.708648E-08 0.001826981
16 -1.613063 0 0 0 0 0
17 -0.7005116 -0.001225332 0.009251048 0 0 0
18 1.327899 0 0 0.0003975971 -0.03647578 -0.02482572
19 0.03170101 0 0 0.01098618 -0.01071998 -0.0105063
20 5.399332 -0.580462 2.17593 0 0 0
21 5.399315 -0.5804622 -2.175933 0 0 3.141593
22 0 0 0 0 0 0
23 1.426178 3.512926 0 0 0 1.570796
24 3.057939 0.0778584 0 -1.570796 -1.570796 0
25 0 0 0 1.67264 -0.02853378 -1.645663
26 -0.063815 0 -1.133617 -0.2985192 0.1849696 -0.06231833
27 0.856682 -0.00300495 0 -0.2840692 0.2065486 0.0363615
28 1.94 0 0 0 0 -0.1017048
29 0.182077 4.48999E-06 0 0 0 -0.11206
30 0.565037 0 0 0.09465268 -0.2910047 0.04181962
31 0.17727 0.3363641 0 0 0 1.599499
32 -0.063815 0 1.133617 -0.03612894 -0.09478471 3.122757
33 -0.856682 0.00299782 0 -0.03748625 -0.09174135 -0.009267327
34 -1.94 0 0 0 0 -0.08239669
35 -0.182077 0 0 0 0 -0.09282288
36 -0.565037 0 0 -0.03690599 0.1135405 0.1463992
37 -0.17727 -0.3363641 0 4.547474E-13 -8.697612E-06 1.59792
39 -0.831173 -1.731595 0 -9.315246E-10 -0.02083665 -1.592863
40 2.130095 0 0 0 0 -0.03556129
time 8
0 0 0 0 0 0 0
1 0 0 0 0 0 0
2 -0.4758095 4.744692 0.243795 0 0 0
3 0 0 0 1.57131 -0.01163637 1.506009
4 2.169108 0 0 0.001026776 0.03409919 0.02987607
5 1.57372 0 0 0.001097258 0.0315704 0.0253562
6 0.908364 0 0.7 1.051393 -1.561303 -1.246852
7 0.989264 0 0.219672 0.4154729 -0.618094 -0.1748922
8 0.697546 0 0 1.078518 0 0
9 0.87866 0 0 1.309378E-06 1.169035E-06 1.683928
10 1.61306 0 0 0 0 0
11 0.7148467 -0.0007282569 -0.002612241 0 0 0
12 0.908364 0 -0.7 2.863458 -1.230601 0.3088578
13 -0.988649 0 -0.21967 0.1631342 -0.6272501 -0.02335593
14 -0.69816 0 0 0.4642779 0 0
15 -0.878661 0 0 -2.9531E-12 2.346307E-08 0.001381068
16 -1.613063 0 0 0 0 0
17 -0.7007846 -0.002197053 0.009288774 0 0 0
18 1.327899 0 0 0.0003976701 -0.03915725 -0.02350079
19 0.03170101 0 0 0.01358736 -0.00389018 -0.009843269
20 5.399332 -0.580462 2.17593 0 0 0
21 5.399315 -0.5804622 -2.175933 0 0 3.141593
22 0 0 0 0 0 0
23 1.426178 3.512926 0 0 0 1.570796
24 3.057939 0.0778584 0 -1.570796 -1.570796 0
25 0 0 0 1.670626 -0.02956007 -1.645797
26 -0.063815 0 -1.133617 -0.298244 0.1838416 -0.06503978
27 0.856682 -0.00300495 0 -0.2831146 0.2065708 0.03636448
28 1.94 0 0 0 0 -0.09670637
29 0.182077 4.48999E-06 0 0 0 -0.1070812
30 0.565037 0 0 0.09160557 -0.291944 0.04731898
31 0.17727 0.3363641 0 0 0 1.589187
32 -0.063815 0 1.133617 -0.03739006 -0.0954018 3.125316
33 -0.856682 0.00299782 0 -0.03864613 -0.0922269 -0.007438998
34 -1.94 0 0 0 0 -0.08892547
35 -0.182077 0 0 0 0 -0.09933674
36 -0.565037 0 0 -0.03697341 0.1148905 0.1588258
37 -0.17727 -0.3363641 0 4.547474E-13 -8.697612E-06 1.591525
39 -0.831173 -1.731595 0 0 -0.02545652 -1.578849
40 2.130095 0 0 0 0 -0.02181486
time 9
0 0 0 0 0 0 0
1 0 0 0 0 0 0
2 -0.4794464 4.74209 0.2426587 0 0 0
3 0 0 0 1.570821 -0.01218796 1.505743
4 2.169108 0 0 0.0004654011 0.03353912 0.03118066
5 1.57372 0 0 0.0004510515 0.03125392 0.02652124
6 0.908364 0 0.7 1.043067 -1.561322 -1.238906
7 0.989264 0 0.219672 0.4154729 -0.618094 -0.1748922
8 0.697546 0 0 1.078518 0 0
9 0.87866 0 0 1.309378E-06 1.169035E-06 1.683928
10 1.61306 0 0 0 0 0
11 0.7151818 -0.0009646764 -0.003092725 0 0 0
12 0.908364 0 -0.7 2.870046 -1.236433 0.2941012
13 -0.988649 0 -0.21967 0.1629113 -0.6324013 -0.02665096
14 -0.69816 0 0 0.4622662 0 0
15 -0.878661 0 0 -6.08652E-13 2.720809E-08 0.002290242
16 -1.613063 0 0 0 0 0
17 -0.7009943 -0.002625345 0.009408402 0 0 0
18 1.327899 0 0 0.0003977332 -0.04113115 -0.02336565
19 0.03170101 0 0 0.01609271 0.002619429 -0.003534028
20 5.399332 -0.580462 2.17593 0 0 0
21 5.399315 -0.5804622 -2.175933 0 0 3.141593
22 0 0 0 0 0 0
23 1.426178 3.512926 0 0 0 1.570796
24 3.057939 0.0778584 0 -1.570796 -1.570796 0
25 0 0 0 1.667701 -0.0298938 -1.645602
26 -0.063815 0 -1.133617 -0.2971582 0.1831752 -0.06671686
27 0.856682 -0.00300495 0 -0.2818024 0.2064323 0.03704577
28 1.94 0 0 0 0 -0.09345793
29 0.182077 4.48999E-06 0 0 0 -0.1038447
30 0.565037 0 0 0.09004653 -0.2924811 0.04613838
31 0.17727 0.3363641 0 0 0 1.585557
32 -0.063815 0 1.133617 -0.03892415 -0.09585585 3.126173
33 -0.856682 0.00299782 0 -0.04008546 -0.09254636 -0.006509849
34 -1.94 0 0 0 0 -0.09014811
35 -0.182077 0 0 0 0 -0.1005515
36 -0.565037 0 0 -0.03703117 0.1160105 0.1625918
37 -0.17727 -0.3363641 0 0 -8.697612E-06 1.588749
39 -0.831173 -1.731595 0 -1.863412E-09 -0.02869193 -1.567548
40 2.130095 0 0 0 0 -0.007751229
time 10
0 0 0 0 0 0 0
1 0 0 0 0 0 0
2 -0.4826969 4.74174 0.2444198 0 0 0
3 0 0 0 1.570288 -0.01153605 1.505244
4 2.169108 0 0 -8.911257E-05 0.03346888 0.03117371
5 1.57372 0 0 -0.0001902537 0.03134434 0.02657842
6 0.908364 0 0.7 1.05083 -1.561291 -1.246485
7 0.989264 0 0.219672 0.4154729 -0.618094 -0.1748922
8 0.697546 0 0 1.078518 0 0
9 0.87866 0 0 1.309378E-06 1.169035E-06 1.683928
10 1.61306 0 0 0 0 0
11 0.7153881 -0.001105218 -0.00311818 0 0 0
12 0.908364 0 -0.7 2.878051 -1.243341 0.2773249
13 -0.988649 0 -0.21967 0.1616024 -0.6390661 -0.02738815
14 -0.69816 0 0 0.4588075 0 0
15 -0.878661 0 0 -7.211592E-14 2.770429E-08 0.004085255
16 -1.613063 0 0 0 0 0
17 -0.7011253 -0.002464782 0.009596591 0 0 0
18 1.327899 0 0 0.0003976676 -0.04226218 -0.02432849
19 0.03170101 0 0 0.01844115 0.0090033 0.006330225
20 5.399332 -0.580462 2.17593 0 0 0
21 5.399315 -0.5804622 -2.175933 0 0 3.141593
22 0 0 0 0 0 0
23 1.426178 3.512926 0 0 0 1.570796
24 3.057939 0.0778584 0 -1.570796 -1.570796 0
25 0 0 0 1.663849 -0.02949194 -1.645078
26 -0.063815 0 -1.133617 -0.2953458 0.1828854 -0.06721163
27 0.856682 -0.00300495 0 -0.2800955 0.2061398 0.03823126
28 1.94 0 0 0 0 -0.0909698
29 0.182077 4.48999E-06 0 0 0 -0.1013642
30 0.565037 0 0 0.0898376 -0.2926981 0.04150892
31 0.17727 0.3363641 0 0 0 1.585499
32 -0.063815 0 1.133617 -0.04068567 -0.09614093 3.126562
33 -0.856682 0.00299782 0 -0.04177092 -0.09268823 -0.006501593
34 -1.94 0 0 0 0 -0.08902733
35 -0.182077 0 0 0 0 -0.09943514
36 -0.565037 0 0 -0.03709718 0.1168543 0.1629964
37 -0.17727 -0.3363641 0 4.547474E-13 -8.697611E-06 1.587831
39 -0.831173 -1.731595 0 -9.31748E-10 -0.03021993 -1.561995
40 2.130095 0 0 0 0 0.00358812
time 11
0 0 0 0 0 0 0
1 0 0 0 0 0 0
2 -0.4855209 4.742699 0.2488872 0 0 0
3 0 0 0 1.569726 -0.009680899 1.504518
4 2.169108 0 0 -0.0006227441 0.03394347 0.02986886
5 1.57372 0 0 -0.0008104322 0.03188287 0.02553748
6 0.908364 0 0.7 1.076824 -1.561228 -1.271822
7 0.989264 0 0.219672 0.4154729 -0.618094 -0.1748922
8 0.697546 0 0 1.078518 0 0
9 0.87866 0 0 1.309378E-06 1.169035E-06 1.683928
10 1.61306 0 0 0 0 0
11 0.7154029 -0.001123024 -0.002726288 0 0 0
12 0.908364 0 -0.7 2.887243 -1.250521 0.2597954
13 -0.988649 0 -0.21967 0.1582425 -0.646719 -0.02238689
14 -0.69816 0 0 0.454103 0 0
15 -0.878661 0 0 -5.415807E-14 2.772408E-08 0.007008158
16 -1.613063 0 0 0 0 0
17 -0.7011619 -0.001860456 0.009839995 0 0 0
18 1.327899 0 0 0.0003977962 -0.04254653 -0.02631119
19 0.03170101 0 0 0.02051819 0.0147956 0.01869574
20 5.399332 -0.580462 2.17593 0 0 0
21 5.399315 -0.5804622 -2.175933 0 0 3.141593
22 0 0 0 0 0 0
23 1.426178 3.512926 0 0 0 1.570796
24 3.057939 0.0778584 0 -1.570796 -1.570796 0
25 0 0 0 1.65905 -0.02831077 -1.644228
26 -0.063815 0 -1.133617 -0.292901 0.1828933 -0.06638935
27 0.856682 -0.00300495 0 -0.2779564 0.2056999 0.03974669
28 1.94 0 0 0 0 -0.08938559
29 0.182077 4.48999E-06 0 0 0 -0.09978235
30 0.565037 0 0 0.09084211 -0.2926816 0.03557466
31 0.17727 0.3363641 0 0 0 1.586997
32 -0.063815 0 1.133617 -0.04262917 -0.09625101 3.125982
33 -0.856682 0.00299782 0 -0.04367575 -0.09265588 -0.007436775
34 -1.94 0 0 0 0 -0.08673687
35 -0.182077 0 0 0 0 -0.09714685
36 -0.565037 0 0 -0.0371863 0.1173631 0.1634233
37 -0.17727 -0.3363641 0 0 -8.697612E-06 1.588671
39 -0.831173 -1.731595 0 -2.795271E-09 -0.03053406 -1.561962
40 2.130095 0 0 0 0 0.009186965
time 12
0 0 0 0 0 0 0
1 0 0 0 0 0 0
2 -0.4878783 4.745054 0.2565982 0 0 0
3 0 0 0 1.569151 -0.006622303 1.503568
4 2.169108 0 0 -0.00112226 0.03499481 0.0272581
5 1.57372 0 0 -0.00139417 0.03288934 0.02339053
6 0.908364 0 0.7 1.123417 -1.561123 -1.317328
7 0.989264 0 0.219672 0.4154729 -0.618094 -0.1748922
8 0.697546 0 0 1.078518 0 0
9 0.87866 0 0 1.309378E-06 1.169035E-06 1.683928
10 1.61306 0 0 0 0 0
11 0.7153364 -0.0009912414 -0.002084136 0 0 0
12 0.908364 0 -0.7 2.896592 -1.257601 0.2428576
13 -0.988649 0 -0.21967 0.1522567 -0.655061 -0.01046196
14 -0.69816 0 0 0.4483536 0 0
15 -0.878661 0 0 -4.884843E-13 2.765199E-08 0.01117728
16 -1.613063 0 0 0 0 0
17 -0.7010888 -0.00093658 0.01012527 0 0 0
18 1.327899 0 0 0.0003976329 -0.04211389 -0.0292137
19 0.03170101 0 0 0.02226011 0.01954189 0.0324989
20 5.399332 -0.580462 2.17593 0 0 0
21 5.399315 -0.5804622 -2.175933 0 0 3.141593
22 0 0 0 0 0 0
23 1.426178 3.512926 0 0 0 1.570796
24 3.057939 0.0778584 0 -1.570796 -1.570796 0
25 0 0 0 1.653288 -0.0263074 -1.643051
26 -0.063815 0 -1.133617 -0.2899086 0.1831144 -0.06411232
27 0.856682 -0.00300495 0 -0.2753475 0.2051191 0.04141787
28 1.94 0 0 0 0 -0.08886645
29 0.182077 4.48999E-06 0 0 0 -0.09926469
30 0.565037 0 0 0.09292123 -0.2925108 0.02758956
31 0.17727 0.3363641 0 0 0 1.592528
32 -0.063815 0 1.133617 -0.04470916 -0.09618007 3.123935
33 -0.856682 0.00299782 0 -0.04576514 -0.09243437 -0.009337122
34 -1.94 0 0 0 0 -0.08344073
35 -0.182077 0 0 0 0 -0.09387045
36 -0.565037 0 0 -0.03731591 0.1174888 0.1600011
37 -0.17727 -0.3363641 0 4.547474E-13 -8.697612E-06 1.591169
39 -0.831173 -1.731595 0 -9.317493E-10 -0.03027304 -1.564713
40 2.130095 0 0 0 0 0.009108776
time 13
0 0 0 0 0 0 0
1 0 0 0 0 0 0
2 -0.4897289 4.751082 0.2683384 0 0 0
3 0 0 0 1.568577 -0.002360227 1.502398
4 2.169108 0 0 -0.001574422 0.03666276 0.02333922
5 1.57372 0 0 -0.001927117 0.03440676 0.02014355
6 0.908364 0 0.7 1.19669 -1.560988 -1.389055
7 0.989264 0 0.219672 0.4154729 -0.618094 -0.1748922
8 0.697546 0 0 1.078518 0 0
9 0.87866 0 0 1.309378E-06 1.169035E-06 1.683928
10 1.61306 0 0 0 0 0
11 0.7153569 -0.0006830128 -0.001278534 0 0 0
12 0.908364 0 -0.7 2.905262 -1.264208 0.2278573
13 -0.988649 0 -0.21967 0.1441792 -0.6637942 0.006684144
14 -0.69816 0 0 0.44176 0 0
15 -0.878661 0 0 -4.715672E-14 2.773351E-08 0.01680147
16 -1.613063 0 0 0 0 0
17 -0.7008902 0.0001826307 0.01043908 0 0 0
18 1.327899 0 0 0.0003978733 -0.04102281 -0.03296686
19 0.03170101 0 0 0.02359141 0.02278832 0.04668286
20 5.399332 -0.580462 2.17593 0 0 0
21 5.399315 -0.5804622 -2.175933 0 0 3.141593
22 0 0 0 0 0 0
23 1.426178 3.512926 0 0 0 1.570796
24 3.057939 0.0778584 0 -1.570796 -1.570796 0
25 0 0 0 1.647132 -0.02343804 -1.641549
26 -0.063815 0 -1.133617 -0.2864646 0.1834707 -0.06024628
27 0.856682 -0.00300495 0 -0.2722344 0.204406 0.04307076
28 1.94 0 0 0 0 -0.0895695
29 0.182077 4.48999E-06 0 0 0 -0.09996624
30 0.565037 0 0 0.09677563 -0.2922743 0.01531684
31 0.17727 0.3363641 0 0 0 1.605203
32 -0.063815 0 1.133617 -0.04688013 -0.09592211 3.119921
33 -0.856682 0.00299782 0 -0.04800568 -0.0920131 -0.01222425
34 -1.94 0 0 0 0 -0.07532649
35 -0.182077 0 0 0 0 -0.08578024
36 -0.565037 0 0 -0.03750329 0.1171828 0.1471202
37 -0.17727 -0.3363641 0 9.094948E-13 -8.697612E-06 1.596937
39 -0.831173 -1.731595 0 9.31724E-10 -0.029363 -1.569458
40 2.130095 0 0 0 0 0.006291066
time 14
0 0 0 0 0 0 0
1 0 0 0 0 0 0
2 -0.4910326 4.761378 0.2848937 0 0 0
3 0 0 0 1.568021 0.003105019 1.501015
4 2.169108 0 0 -0.001965428 0.03897044 0.01895099
5 1.57372 0 0 -0.002391263 0.03639688 0.01644308
6 0.908364 0 0.7 1.301491 -1.560819 -1.492279
7 0.989264 0 0.219672 0.4154729 -0.618094 -0.1748922
8 0.697546 0 0 1.078518 0 0
9 0.87866 0 0 1.309378E-06 1.169035E-06 1.683928
10 1.61306 0 0 0 0 0
11 0.7154886 -0.0003390867 -0.0003962906 0 0 0
12 0.908364 0 -0.7 2.912421 -1.26997 0.2161387
13 -0.988649 0 -0.21967 0.1345437 -0.672619 0.02734907
14 -0.69816 0 0 0.4345226 0 0
15 -0.878661 0 0 -6.494805E-15 2.773808E-08 0.023901
16 -1.613063 0 0 0 0 0
17 -0.7005509 0.001372962 0.01076808 0 0 0
18 1.327899 0 0 0.0003977129 -0.03927425 -0.03656442
19 0.03170101 0 0 0.02443249 0.02407805 0.06018482
20 5.399332 -0.580462 2.17593 0 0 0
21 5.399315 -0.5804622 -2.175933 0 0 3.141593
22 0 0 0 0 0 0
23 1.426178 3.512926 0 0 0 1.570796
24 3.057939 0.0778584 0 -1.570796 -1.570796 0
25 0 0 0 1.641158 -0.01983183 -1.639722
26 -0.063815 0 -1.133617 -0.2826522 0.1838769 -0.05567876
27 0.856682 -0.00300495 0 -0.2692744 0.2035654 0.04453101
28 1.94 0 0 0 0 -0.09165153
29 0.182077 4.48999E-06 0 0 0 -0.1020443
30 0.565037 0 0 0.1023984 -0.2920499 -0.00133669
31 0.17727 0.3363641 0 0 0 1.626136
32 -0.063815 0 1.133617 -0.04907208 -0.09547117 3.112986
33 -0.856682 0.00299782 0 -0.05036837 -0.09139029 -0.01626085
34 -1.94 0 0 0 0 -0.05975237
35 -0.182077 0 0 0 0 -0.07026523
36 -0.565037 0 0 -0.03776373 0.1163882 0.1209581
37 -0.17727 -0.3363641 0 -4.547474E-13 -8.697612E-06 1.605721
39 -0.831173 -1.731595 0 -2.795042E-09 -0.02773011 -1.575406
40 2.130095 0 0 0 0 0.001381068
time 15
0 0 0 0 0 0 0
1 0 0 0 0 0 0
2 -0.4917494 4.7724 0.3070497 0 0 0
3 0 0 0 1.567496 0.009773738 1.49942
4 2.169108 0 0 -0.002282402 0.04177836 0.01511087
5 1.57372 0 0 -0.002774915 0.03895416 0.01324225
6 0.908364 0 0.7 1.429771 -1.560618 -1.619047
7 0.989264 0 0.219672 0.4154729 -0.618094 -0.1748922
8 0.697546 0 0 1.078518 0 0
9 0.87866 0 0 1.309378E-06 1.169035E-06 1.683928
10 1.61306 0 0 0 0 0
11 0.7157554 -0.0001077076 0.0004757848 0 0 0
12 0.908364 0 -0.7 2.917235 -1.274518 0.2090466
13 -0.988649 0 -0.21967 0.1238854 -0.681242 0.0498303
14 -0.69816 0 0 0.4261105 0 0
15 -0.878661 0 0 -2.556289E-14 2.773932E-08 0.03261667
16 -1.613063 0 0 0 0 0
17 -0.7000555 0.002510199 0.01118053 0 0 0
18 1.327899 0 0 0.0003977488 -0.03692293 -0.03914513
19 0.03170101 0 0 0.02471251 0.02296231 0.07027094
20 5.399332 -0.580462 2.17593 0 0 0
21 5.399315 -0.5804622 -2.175933 0 0 3.141593
22 0 0 0 0 0 0
23 1.426178 3.512926 0 0 0 1.570796
24 3.057939 0.0778584 0 -1.570796 -1.570796 0
25 0 0 0 1.635525 -0.01578605 -1.637571
26 -0.063815 0 -1.133617 -0.2793108 0.1842503 -0.05170191
27 0.856682 -0.00300495 0 -0.2669986 0.2026067 0.04562464
28 1.94 0 0 0 0 -0.09383995
29 0.182077 4.48999E-06 0 0 0 -0.1042252
30 0.565037 0 0 0.1087447 -0.2919301 -0.02021191
31 0.17727 0.3363641 0 0 0 1.64949
32 -0.063815 0 1.133617 -0.05110684 -0.09482122 3.097187
33 -0.856682 0.00299782 0 -0.05263174 -0.09056566 -0.01197172
34 -1.94 0 0 0 0 -0.04243353
35 -0.182077 0 0 0 0 -0.053002
36 -0.565037 0 0 -0.03811538 0.1150599 0.0944378
37 -0.17727 -0.3363641 0 9.094947E-13 -8.697612E-06 1.614883
39 -0.831173 -1.731595 0 -9.316207E-10 -0.02530051 -1.581767
40 2.130095 0 0 0 0 -0.004632244
time 16
0 0 0 0 0 0 0
1 0 0 0 0 0 0
2 -0.4918391 4.780272 0.3342972 0 0 0
3 0 0 0 1.567019 0.01764592 1.49762
4 2.169108 0 0 -0.002511119 0.04474727 0.0122166
5 1.57372 0 0 -0.003059193 0.04175559 0.01085724
6 0.908364 0 0.7 1.569645 -1.560398 -1.756989
7 0.989264 0 0.219672 0.4154729 -0.618094 -0.1748922
8 0.697546 0 0 1.078518 0 0
9 0.87866 0 0 1.309378E-06 1.169035E-06 1.683928
10 1.61306 0 0 0 0 0
11 0.7161813 2.699852E-05 0.001250883 0 0 0
12 0.908364 0 -0.7 2.918868 -1.277477 0.2067299
13 -0.988649 0 -0.21967 0.1127371 -0.6893592 0.07123836
14 -0.69816 0 0 0.416244 0 0
15 -0.878661 0 0 -1.381117E-13 2.773356E-08 0.04305273
16 -1.613063 0 0 0 0 0
17 -0.6995844 0.003470127 0.01173078 0 0 0
18 1.327899 0 0 0.0003977173 -0.03399101 -0.04069745
19 0.03170101 0 0 0.02434666 0.01897968 0.07561149
20 5.399332 -0.580462 2.17593 0 0 0
21 5.399315 -0.5804622 -2.175933 0 0 3.141593
22 0 0 0 0 0 0
23 1.426178 3.512926 0 0 0 1.570796
24 3.057939 0.0778584 0 -1.570796 -1.570796 0
25 0 0 0 1.630389 -0.01145975 -1.635097
26 -0.063815 0 -1.133617 -0.2768853 0.1843231 -0.04888032
27 0.856682 -0.00300495 0 -0.2653572 0.2015346 0.04617733
28 1.94 0 0 0 0 -0.09492154
29 0.182077 4.48999E-06 0 0 0 -0.1053044
30 0.565037 0 0 0.114765 -0.292246 -0.03489285
31 0.17727 0.3363641 0 0 0 1.668464
32 -0.063815 0 1.133617 -0.05296395 -0.09396626 3.096417
33 -0.856682 0.00299782 0 -0.05457796 -0.0895272 -0.02231719
34 -1.94 0 0 0 0 -0.03055594
35 -0.182077 0 0 0 0 -0.04117879
36 -0.565037 0 0 -0.03831517 0.1134447 0.08254313
37 -0.17727 -0.3363641 0 4.547474E-13 -8.697612E-06 1.621787
39 -0.831173 -1.731595 0 9.315479E-10 -0.02200039 -1.587751
40 2.130095 0 0 0 0 -0.01124109
time 17
0 0 0 0 0 0 0
1 0 0 0 0 0 0
2 -0.4912389 4.783713 0.3640181 0 0 0
3 0 0 0 1.566604 0.02577095 1.495867
4 2.169108 0 0 -0.002638269 0.047791 0.01067605
5 1.57372 0 0 -0.003231365 0.04451876 0.009643569
6 0.908364 0 0.7 1.709322 -1.560138 -1.894817
7 0.989264 0 0.219672 0.4154729 -0.618094 -0.1748922
8 0.697546 0 0 1.078518 0 0
9 0.87866 0 0 1.309378E-06 1.169035E-06 1.683928
10 1.61306 0 0 0 0 0
11 0.7167905 8.090626E-05 0.001842195 0 0 0
12 0.908364 0 -0.7 2.918317 -1.279308 0.2074295
13 -0.988649 0 -0.21967 0.1024044 -0.6966743 0.08912754
14 -0.69816 0 0 0.4057394 0 0
15 -0.878661 0 0 -1.047495E-13 2.773613E-08 0.05468048
16 -1.613063 0 0 0 0 0
17 -0.6993076 0.004128532 0.0123845 0 0 0
18 1.327899 0 0 0.0003978255 -0.0305166 -0.04122608
19 0.03170101 0 0 0.02347003 0.0125955 0.07655644
20 5.399332 -0.580462 2.17593 0 0 0
21 5.399315 -0.5804622 -2.175933 0 0 3.141593
22 0 0 0 0 0 0
23 1.426178 3.512926 0 0 0 1.570796
24 3.057939 0.0778584 0 -1.570796 -1.570796 0
25 0 0 0 1.625906 -0.007011143 -1.63263
26 -0.063815 0 -1.133617 -0.2752937 0.1838937 -0.04777821
27 0.856682 -0.00300495 0 -0.2643031 0.2003562 0.0460149
28 1.94 0 0 0 0 -0.0952952
29 0.182077 4.48999E-06 0 0 0 -0.1056753
30 0.565037 0 0 0.1194103 -0.2932282 -0.04353325
31 0.17727 0.3363641 0 0 0 1.680448
32 -0.063815 0 1.133617 -0.05462286 -0.09290023 3.095246
33 -0.856682 0.00299782 0 -0.0562003 -0.08826623 -0.02599923
34 -1.94 0 0 0 0 -0.02748312
35 -0.182077 0 0 0 0 -0.0381178
36 -0.565037 0 0 -0.0381936 0.1118394 0.08332027
37 -0.17727 -0.3363641 0 0 -8.697612E-06 1.626204
39 -0.831173 -1.731595 0 0 -0.0177559 -1.592568
40 2.130095 0 0 0 0 -0.01737354
time 18
0 0 0 0 0 0 0
1 0 0 0 0 0 0
2 -0.4899561 4.784486 0.3938341 0 0 0
3 0 0 0 1.566266 0.03330653 1.494379
4 2.169108 0 0 -0.002651193 0.05083531 0.01089728
5 1.57372 0 0 -0.003273945 0.04716187 0.009935315
6 0.908364 0 0.7 1.837025 -1.559824 -2.023383
7 0.989264 0 0.219672 0.4154729 -0.618094 -0.1748922
8 0.697546 0 0 1.078518 0 0
9 0.87866 0 0 1.309378E-06 1.169035E-06 1.683928
10 1.61306 0 0 0 0 0
11 0.7176069 6.988965E-05 0.002162912 0 0 0
12 0.908364 0 -0.7 2.916933 -1.28071 0.2096278
13 -0.988649 0 -0.21967 0.09376617 -0.7028893 0.102461
14 -0.69816 0 0 0.3954148 0 0
15 -0.878661 0 0 9.714451E-15 2.773973E-08 0.06648467
16 -1.613063 0 0 0 0 0
17 -0.6991922 0.004361198 0.01310736 0 0 0
18 1.327899 0 0 0.000397815 -0.02652263 -0.04071677
19 0.03170101 0 0 0.02232406 0.004951393 0.07344207
20 5.399332 -0.580462 2.17593 0 0 0
21 5.399315 -0.5804622 -2.175933 0 0 3.141593
22 0 0 0 0 0 0
23 1.426178 3.512926 0 0 0 1.570796
24 3.057939 0.0778584 0 -1.570796 -1.570796 0
25 0 0 0 1.622233 -0.002599034 -1.630499
26 -0.063815 0 -1.133617 -0.2744442 0.183025 -0.04751609
27 0.856682 -0.00300495 0 -0.2637901 0.1991761 0.04520194
28 1.94 0 0 0 0 -0.09535275
29 0.182077 4.48999E-06 0 0 0 -0.1057317
30 0.565037 0 0 0.1225848 -0.2947278 -0.04774472
31 0.17727 0.3363641 0 0 0 1.688053
32 -0.063815 0 1.133617 -0.05606309 -0.09161717 3.093905
33 -0.856682 0.00299782 0 -0.05749607 -0.0867806 -0.02553259
34 -1.94 0 0 0 0 -0.0295806
35 -0.182077 0 0 0 0 -0.04020612
36 -0.565037 0 0 -0.03780419 0.1102553 0.09082967
37 -0.17727 -0.3363641 0 4.547474E-13 -8.697612E-06 1.629044
39 -0.831173 -1.731595 0 -4.656976E-10 -0.01249319 -1.596332
40 2.130095 0 0 0 0 -0.02233331
time 19
0 0 0 0 0 0 0
1 0 0 0 0 0 0
2 -0.4880562 4.783283 0.4213672 0 0 0
3 0 0 0 1.566022 0.04004019 1.493152
4 2.169108 0 0 -0.002536051 0.05378278 0.01328308
5 1.57372 0 0 -0.00317304 0.04965729 0.01207956
6 0.908364 0 0.7 1.944292 -1.559476 -2.133625
7 0.989264 0 0.219672 0.4154729 -0.618094 -0.1748922
8 0.697546 0 0 1.078518 0 0
9 0.87866 0 0 1.309378E-06 1.169035E-06 1.683928
10 1.61306 0 0 0 0 0
11 0.7186546 9.823183E-06 0.002126224 0 0 0
12 0.908364 0 -0.7 2.914645 -1.281536 0.211809
13 -0.988649 0 -0.21967 0.08671696 -0.7077065 0.1118778
14 -0.69816 0 0 0.386086 0 0
15 -0.878661 0 0 -4.218847E-15 2.773931E-08 0.07795885
16 -1.613063 0 0 0 0 0
17 -0.6992053 0.004043911 0.01386503 0 0 0
18 1.327899 0 0 0.0003977602 -0.02204412 -0.03916977
19 0.03170101 0 0 0.02093149 -0.003495272 0.06659891
20 5.399332 -0.580462 2.17593 0 0 0
21 5.399315 -0.5804622 -2.175933 0 0 3.141593
22 0 0 0 0 0 0
23 1.426178 3.512926 0 0 0 1.570796
24 3.057939 0.0778584 0 -1.570796 -1.570796 0
25 0 0 0 1.619526 0.001618028 -1.628704
26 -0.063815 0 -1.133617 -0.2742573 0.181788 -0.04721516
27 0.856682 -0.00300495 0 -0.2637714 0.1980803 0.04407282
28 1.94 0 0 0 0 -0.09549271
29 0.182077 4.48999E-06 0 0 0 -0.1058715
30 0.565037 0 0 0.1245657 -0.2965862 -0.04692219
31 0.17727 0.3363641 0 0 0 1.692316
32 -0.063815 0 1.133617 -0.05726414 -0.0901111 3.092563
33 -0.856682 0.00299782 0 -0.05845584 -0.08524371 -0.02332662
34 -1.94 0 0 0 0 -0.03363869
35 -0.182077 0 0 0 0 -0.04423821
36 -0.565037 0 0 -0.03720522 0.1087198 0.1006935
37 -0.17727 -0.3363641 0 -4.547474E-13 -8.697613E-06 1.62964
39 -0.831173 -1.731595 0 2.328351E-10 -0.006138423 -1.598605
40 2.130095 0 0 0 0 -0.02607642
time 20
0 0 0 0 0 0 0
1 0 0 0 0 0 0
2 -0.485605 4.779911 0.4442394 0 0 0
3 0 0 0 1.565886 0.04575833 1.49218
4 2.169108 0 0 -0.002279621 0.05655164 0.01722563
5 1.57372 0 0 -0.002912535 0.05194398 0.01543039
6 0.908364 0 0.7 2.029684 -1.559123 -2.21966
7 0.989264 0 0.219672 0.4154729 -0.618094 -0.1748922
8 0.697546 0 0 1.078518 0 0
9 0.87866 0 0 1.309378E-06 1.169035E-06 1.683928
10 1.61306 0 0 0 0 0
11 0.7199575 -8.341932E-05 0.001645321 0 0 0
12 0.908364 0 -0.7 2.911384 -1.281638 0.2140166
13 -0.988649 0 -0.21967 0.08115119 -0.7108269 0.1190643
14 -0.69816 0 0 0.3785703 0 0
15 -0.878661 0 0 -2.553513E-15 2.773942E-08 0.08861919
16 -1.613063 0 0 0 0 0
17 -0.6993142 0.003394067 0.01462318 0 0 0
18 1.327899 0 0 0.0003976033 -0.01758418 -0.03657842
19 0.03170101 0 0 0.01932205 -0.01228747 0.05638009
20 5.399332 -0.580462 2.17593 0 0 0
21 5.399315 -0.5804622 -2.175933 0 0 3.141593
22 0 0 0 0 0 0
23 1.426178 3.512926 0 0 0 1.570796
24 3.057939 0.0778584 0 -1.570796 -1.570796 0
25 0 0 0 1.617943 0.005481151 -1.627243
26 -0.063815 0 -1.133617 -0.274646 0.1802488 -0.04733437
27 0.856682 -0.00300495 0 -0.2641973 0.1970883 0.04270543
28 1.94 0 0 0 0 -0.09610765
29 0.182077 4.48999E-06 0 0 0 -0.1064892
30 0.565037 0 0 0.1250487 -0.2986564 -0.04046315
31 0.17727 0.3363641 0 0 0 1.692835
32 -0.063815 0 1.133617 -0.0582055 -0.08837602 3.091407
33 -0.856682 0.00299782 0 -0.05907724 -0.08389005 -0.02055086
34 -1.94 0 0 0 0 -0.03885504
35 -0.182077 0 0 0 0 -0.04943115
36 -0.565037 0 0 -0.03645061 0.1072456 0.1156852
37 -0.17727 -0.3363641 0 -4.547474E-13 -8.697612E-06 1.627324
39 -0.831173 -1.731595 0 2.910384E-11 0.0008975677 -1.597955
40 2.130095 0 0 0 0 -0.02830371
time 21
0 0 0 0 0 0 0
1 0 0 0 0 0 0
2 -0.4826679 4.772864 0.4609707 0 0 0
3 0 0 0 1.565873 0.05024807 1.491463
4 2.169108 0 0 -0.001867661 0.0590268 0.02132726
5 1.57372 0 0 -0.002469088 0.05395621 0.01882545
6 0.908364 0 0.7 2.092027 -1.558766 -2.282866
7 0.989264 0 0.219672 0.4154729 -0.618094 -0.1748922
8 0.697546 0 0 1.078518 0 0
9 0.87866 0 0 1.309378E-06 1.169035E-06 1.683928
10 1.61306 0 0 0 0 0
11 0.7212524 -0.0001939635 0.0009839728 0 0 0
12 0.908364 0 -0.7 2.907081 -1.280868 0.2178555
13 -0.988649 0 -0.21967 0.07696337 -0.7118657 0.1245565
14 -0.69816 0 0 0.373011 0 0
15 -0.878661 0 0 -9.992007E-16 2.77395E-08 0.09797075
16 -1.613063 0 0 0 0 0
17 -0.6994857 0.002744966 0.01534747 0 0 0
18 1.327899 0 0 0.0003978083 -0.01364059 -0.03296489
19 0.03170101 0 0 0.01751643 -0.02096603 0.04450607
20 5.399332 -0.580462 2.17593 0 0 0
21 5.399315 -0.5804622 -2.175933 0 0 3.141593
22 0 0 0 0 0 0
23 1.426178 3.512926 0 0 0 1.570796
24 3.057939 0.0778584 0 -1.570796 -1.570796 0
25 0 0 0 1.617473 0.008832122 -1.626115
26 -0.063815 0 -1.133617 -0.2755286 0.1784767 -0.04833396
27 0.856682 -0.00300495 0 -0.2650253 0.1962257 0.04117813
28 1.94 0 0 0 0 -0.09581935
29 0.182077 4.48999E-06 0 0 0 -0.1061976
30 0.565037 0 0 0.1237236 -0.3007785 -0.02776217
31 0.17727 0.3363641 0 0 0 1.685575
32 -0.063815 0 1.133617 -0.05886668 -0.08640587 3.100029
33 -0.856682 0.00299782 0 -0.05935748 -0.08272947 -0.02610291
34 -1.94 0 0 0 0 -0.04944079
35 -0.182077 0 0 0 0 -0.05997543
36 -0.565037 0 0 -0.0355985 0.1058597 0.1406221
37 -0.17727 -0.3363641 0 4.547474E-13 -8.697612E-06 1.621431
39 -0.831173 -1.731595 0 9.313514E-10 0.007883999 -1.592946
40 2.130095 0 0 0 0 -0.02761295
time 22
0 0 0 0 0 0 0
1 0 0 0 0 0 0
2 -0.4793106 4.762322 0.4724147 0 0 0
3 0 0 0 1.565999 0.05329616 1.490994
4 2.169108 0 0 -0.001287496 0.06113961 0.02522435
5 1.57372 0 0 -0.001893487 0.05568347 0.02200963
6 0.908364 0 0.7 2.131915 -1.558439 -2.324931
7 0.989264 0 0.219672 0.4154729 -0.618094 -0.1748922
8 0.697546 0 0 1.078518 0 0
9 0.87866 0 0 1.309378E-06 1.169035E-06 1.683928
10 1.61306 0 0 0 0 0
11 0.7222534 -0.0003059346 0.0004713972 0 0 0
12 0.908364 0 -0.7 2.901665 -1.279078 0.2241528
13 -0.988649 0 -0.21967 0.07404808 -0.7107148 0.1288907
14 -0.69816 0 0 0.3690856 0 0
15 -0.878661 0 0 -1.210143E-14 2.77394E-08 0.1055194
16 -1.613063 0 0 0 0 0
17 -0.6996872 0.002146252 0.01600358 0 0 0
18 1.327899 0 0 0.0003976171 -0.01021213 -0.02921755
19 0.03170101 0 0 0.01554155 -0.02907315 0.03483151
20 5.399332 -0.580462 2.17593 0 0 0
21 5.399315 -0.5804622 -2.175933 0 0 3.141593
22 0 0 0 0 0 0
23 1.426178 3.512926 0 0 0 1.570796
24 3.057939 0.0778584 0 -1.570796 -1.570796 0
25 0 0 0 1.617954 0.01151224 -1.62532
26 -0.063815 0 -1.133617 -0.276815 0.1765362 -0.05067208
27 0.856682 -0.00300495 0 -0.2662043 0.195511 0.03956872
28 1.94 0 0 0 0 -0.09374332
29 0.182077 4.48999E-06 0 0 0 -0.1041337
30 0.565037 0 0 0.1202833 -0.3027995 -0.01040922
31 0.17727 0.3363641 0 0 0 1.668594
32 -0.063815 0 1.133617 -0.05922717 -0.084571 3.110288
33 -0.856682 0.00299782 0 -0.05928169 -0.08175456 -0.02469018
34 -1.94 0 0 0 0 -0.06736831
35 -0.182077 0 0 0 0 -0.07785477
36 -0.565037 0 0 -0.03470407 0.1045791 0.1772458
37 -0.17727 -0.3363641 0 0 -8.697612E-06 1.612583
39 -0.831173 -1.731595 0 9.314204E-10 0.01448222 -1.582145
40 2.130095 0 0 0 0 -0.02251407
time 23
0 0 0 0 0 0 0
1 0 0 0 0 0 0
2 -0.4755986 4.751722 0.4796929 0 0 0
3 0 0 0 1.566279 0.05519617 1.490772
4 2.169108 0 0 -0.0005255711 0.06280322 0.02854934
5 1.57372 0 0 -0.001214318 0.05704505 0.02470434
6 0.908364 0 0.7 2.154735 -1.558124 -2.350147
7 0.989264 0 0.219672 0.4154729 -0.618094 -0.1748922
8 0.697546 0 0 1.078518 0 0
9 0.87866 0 0 1.309378E-06 1.169035E-06 1.683928
10 1.61306 0 0 0 0 0
11 0.7229506 -0.0004034587 0.0001189632 0 0 0
12 0.908364 0 -0.7 2.895068 -1.276122 0.2337335
13 -0.988649 0 -0.21967 0.07229979 -0.7075363 0.1326032
14 -0.69816 0 0 0.366914 0 0
15 -0.878661 0 0 -4.551914E-15 2.773956E-08 0.1107733
16 -1.613063 0 0 0 0 0
17 -0.6998858 0.001647571 0.01655718 0 0 0
18 1.327899 0 0 0.0003978418 -0.007332976 -0.02634992
19 0.03170101 0 0 0.01342853 -0.03616706 0.03126039
20 5.399332 -0.580462 2.17593 0 0 0
21 5.399315 -0.5804622 -2.175933 0 0 3.141593
22 0 0 0 0 0 0
23 1.426178 3.512926 0 0 0 1.570796
24 3.057939 0.0778584 0 -1.570796 -1.570796 0
25 0 0 0 1.619347 0.01336272 -1.624856
26 -0.063815 0 -1.133617 -0.2784269 0.1744987 -0.05339618
27 0.856682 -0.00300495 0 -0.2676906 0.1949685 0.03795552
28 1.94 0 0 0 0 -0.09113744
29 0.182077 4.48999E-06 0 0 0 -0.1015335
30 0.565037 0 0 0.1162234 -0.3045689 0.006757042
31 0.17727 0.3363641 0 0 0 1.650834
32 -0.063815 0 1.133617 -0.05926645 -0.08316578 3.11645
33 -0.856682 0.00299782 0 -0.0588599 -0.08099345 -0.02008457
34 -1.94 0 0 0 0 -0.08453678
35 -0.182077 0 0 0 0 -0.09496424
36 -0.565037 0 0 -0.03382379 0.1034258 0.2106264
37 -0.17727 -0.3363641 0 0 -8.697612E-06 1.603893
39 -0.831173 -1.731595 0 0 0.02035357 -1.566772
40 2.130095 0 0 0 0 -0.01155486
time 24
0 0 0 0 0 0 0
1 0 0 0 0 0 0
2 -0.4715976 4.744692 0.4839267 0 0 0
3 0 0 0 1.566728 0.0565092 1.490792
4 2.169108 0 0 0.0003103394 0.06391755 0.03092835
5 1.57372 0 0 -0.0004617076 0.05798483 0.02663768
6 0.908364 0 0.7 2.166444 -1.557864 -2.36306
7 0.989264 0 0.219672 0.4154729 -0.618094 -0.1748922
8 0.697546 0 0 1.078518 0 0
9 0.87866 0 0 1.309378E-06 1.169035E-06 1.683928
10 1.61306 0 0 0 0 0
11 0.7233341 -0.000470662 -6.195961E-05 0 0 0
12 0.908364 0 -0.7 2.887219 -1.271851 0.2474256
13 -0.988649 0 -0.21967 0.07161303 -0.7024885 0.1362298
14 -0.69816 0 0 0.366614 0 0
15 -0.878661 0 0 -1.387779E-14 2.773948E-08 0.1140268
16 -1.613063 0 0 0 0 0
17 -0.7000486 0.001298566 0.01697393 0 0 0
18 1.327899 0 0 0.0003974265 -0.005003477 -0.02438756
19 0.03170101 0 0 0.01118873 -0.04272898 0.03508351
20 5.399332 -0.580462 2.17593 0 0 0
21 5.399315 -0.5804622 -2.175933 0 0 3.141593
22 0 0 0 0 0 0
23 1.426178 3.512926 0 0 0 1.570796
24 3.057939 0.0778584 0 -1.570796 -1.570796 0
25 0 0 0 1.621613 0.0142251 -1.624723
26 -0.063815 0 -1.133617 -0.2802755 0.1732171 -0.05526411
27 0.856682 -0.00300495 0 -0.2694318 0.1946161 0.0364163
28 1.94 0 0 0 0 -0.08923337
29 0.182077 4.48999E-06 0 0 0 -0.09963404
30 0.565037 0 0 0.1132565 -0.3059324 0.01963562
31 0.17727 0.3363641 0 0 0 1.640787
32 -0.063815 0 1.133617 -0.05876025 -0.08216928 3.120321
33 -0.856682 0.00299782 0 -0.05807011 -0.08042889 -0.01626146
34 -1.94 0 0 0 0 -0.09440756
35 -0.182077 0 0 0 0 -0.1047958
36 -0.565037 0 0 -0.03301258 0.1024144 0.2286396
37 -0.17727 -0.3363641 0 0 -8.697612E-06 1.598289
39 -0.831173 -1.731595 0 9.316172E-10 0.02515942 -1.551225
40 2.130095 0 0 0 0 0.003844731
time 25
0 0 0 0 0 0 0
1 0 0 0 0 0 0
2 -0.4677646 4.742096 0.4856628 0 0 0
3 0 0 0 1.567361 0.05715451 1.491051
4 2.169108 0 0 0.001090377 0.06440492 0.03199758
5 1.57372 0 0 0.0003345612 0.05847959 0.02755341
6 0.908364 0 0.7 2.170372 -1.557672 -2.365695
7 0.989264 0 0.219672 0.4154729 -0.618094 -0.1748922
8 0.697546 0 0 1.078518 0 0
9 0.87866 0 0 1.309378E-06 1.169035E-06 1.683928
10 1.61306 0 0 0 0 0
11 0.723394 -0.0004916693 -6.000255E-05 0 0 0
12 0.908364 0 -0.7 2.878051 -1.266117 0.2646061
13 -0.988649 0 -0.21967 0.07188222 -0.6957316 0.1395084
14 -0.69816 0 0 0.3683085 0 0
15 -0.878661 0 0 -7.882583E-15 2.773957E-08 0.1156264
16 -1.613063 0 0 0 0 0
17 -0.7001427 0.001148884 0.01721951 0 0 0
18 1.327899 0 0 0.0003976832 -0.003257368 -0.02348319
19 0.03170101 0 0 0.008861991 -0.04950928 0.04332616
20 5.399332 -0.580462 2.17593 0 0 0
21 5.399315 -0.5804622 -2.175933 0 0 3.141593
22 0 0 0 0 0 0
23 1.426178 3.512926 0 0 0 1.570796
24 3.057939 0.0778584 0 -1.570796 -1.570796 0
25 0 0 0 1.624713 0.01411849 -1.624919
26 -0.063815 0 -1.133617 -0.2822788 0.173006 -0.05650622
27 0.856682 -0.00300495 0 -0.2713873 0.1944803 0.03502943
28 1.94 0 0 0 0 -0.08927346
29 0.182077 4.48999E-06 0 0 0 -0.09967472
30 0.565037 0 0 0.1113375 -0.3067338 0.02763616
31 0.17727 0.3363641 0 0 0 1.636445
32 -0.063815 0 1.133617 -0.05751581 -0.08156072 3.122329
33 -0.856682 0.00299782 0 -0.05691705 -0.08008125 -0.01462595
34 -1.94 0 0 0 0 -0.0990771
35 -0.182077 0 0 0 0 -0.1094497
36 -0.565037 0 0 -0.03232716 0.101568 0.235587
37 -0.17727 -0.3363641 0 -4.547474E-13 -8.697612E-06 1.595775
39 -0.831173 -1.731595 0 -9.317025E-10 0.02856109 -1.538631
40 2.130095 0 0 0 0 0.01939658
time 26
0 0 0 0 0 0 0
1 0 0 0 0 0 0
2 -0.4645009 4.741749 0.4845012 0 0 0
3 0 0 0 1.568098 0.05705071 1.491545
4 2.169108 0 0 0.001804425 0.06416249 0.03137968
5 1.57372 0 0 0.001144257 0.05844807 0.02716896
6 0.908364 0 0.7 2.164347 -1.557572 -2.358932
7 0.989264 0 0.219672 0.4154729 -0.618094 -0.1748922
8 0.697546 0 0 1.078518 0 0
9 0.87866 0 0 1.309378E-06 1.169035E-06 1.683928
10 1.61306 0 0 0 0 0
11 0.7231205 -0.0004506073 0.0001362034 0 0 0
12 0.908364 0 -0.7 2.868416 -1.2593 0.2833
13 -0.988649 0 -0.21967 0.07385107 -0.6874299 0.1403513
14 -0.69816 0 0 0.3721144 0 0
15 -0.878661 0 0 -2.88658E-15 2.773947E-08 0.11524
16 -1.613063 0 0 0 0 0
17 -0.7001353 0.001248169 0.01725958 0 0 0
18 1.327899 0 0 0.0003974115 -0.002099598 -0.02365499
19 0.03170101 0 0 0.006464245 -0.05602616 0.05257469
20 5.399332 -0.580462 2.17593 0 0 0
21 5.399315 -0.5804622 -2.175933 0 0 3.141593
22 0 0 0 0 0 0
23 1.426178 3.512926 0 0 0 1.570796
24 3.057939 0.0778584 0 -1.570796 -1.570796 0
25 0 0 0 1.628607 0.01321846 -1.625445
26 -0.063815 0 -1.133617 -0.284351 0.1731928 -0.05735171
27 0.856682 -0.00300495 0 -0.2735071 0.1945809 0.03387283
28 1.94 0 0 0 0 -0.09142485
29 0.182077 4.48999E-06 0 0 0 -0.101822
30 0.565037 0 0 0.110423 -0.3068222 0.03293365
31 0.17727 0.3363641 0 0 0 1.635278
32 -0.063815 0 1.133617 -0.0556597 -0.08131905 3.122904
33 -0.856682 0.00299782 0 -0.05539696 -0.07995923 -0.01377626
34 -1.94 0 0 0 0 -0.1003187
35 -0.182077 0 0 0 0 -0.1106828
36 -0.565037 0 0 -0.03182371 0.1009069 0.2366021
37 -0.17727 -0.3363641 0 0 -8.697612E-06 1.59464
39 -0.831173 -1.731595 0 -1.863496E-09 0.03021993 -1.532116
40 2.130095 0 0 0 0 0.03200419
time 27
0 0 0 0 0 0 0
1 0 0 0 0 0 0
2 -0.461787 4.742706 0.4801475 0 0 0
3 0 0 0 1.568788 0.05611658 1.492271
4 2.169108 0 0 0.002443553 0.06337316 0.02868761
5 1.57372 0 0 0.001938679 0.05787671 0.02523301
6 0.908364 0 0.7 2.146083 -1.557549 -2.340076
7 0.989264 0 0.219672 0.4154729 -0.618094 -0.1748922
8 0.697546 0 0 1.078518 0 0
9 0.87866 0 0 1.309378E-06 1.169035E-06 1.683928
10 1.61306 0 0 0 0 0
11 0.7225036 -0.000331601 0.0005380276 0 0 0
12 0.908364 0 -0.7 2.859615 -1.252083 0.3023052
13 -0.988649 0 -0.21967 0.07815072 -0.6777414 0.1365558
14 -0.69816 0 0 0.376817 0 0
15 -0.878661 0 0 -3.774758E-15 2.773954E-08 0.112538
16 -1.613063 0 0 0 0 0
17 -0.6999935 0.001646067 0.01705981 0 0 0
18 1.327899 0 0 0.0003977141 -0.001554193 -0.025047
19 0.03170101 0 0 0.004023491 -0.06184956 0.06174235
20 5.399332 -0.580462 2.17593 0 0 0
21 5.399315 -0.5804622 -2.175933 0 0 3.141593
22 0 0 0 0 0 0
23 1.426178 3.512926 0 0 0 1.570796
24 3.057939 0.0778584 0 -1.570796 -1.570796 0
25 0 0 0 1.633257 0.01158251 -1.626298
26 -0.063815 0 -1.133617 -0.2864475 0.1731059 -0.05977308
27 0.856682 -0.00300495 0 -0.2757424 0.1949384 0.03302454
28 1.94 0 0 0 0 -0.09253981
29 0.182077 4.48999E-06 0 0 0 -0.1029333
30 0.565037 0 0 0.1104671 -0.3061286 0.03515503
31 0.17727 0.3363641 0 0 0 1.634759
32 -0.063815 0 1.133617 -0.05331848 -0.08142351 3.122472
33 -0.856682 0.00299782 0 -0.05349559 -0.08005626 -0.01373863
34 -1.94 0 0 0 0 -0.09989941
35 -0.182077 0 0 0 0 -0.1102704
36 -0.565037 0 0 -0.03155821 0.1004509 0.2351322
37 -0.17727 -0.3363641 0 0 -8.697612E-06 1.595152
39 -0.831173 -1.731595 0 2.79527E-09 0.03052598 -1.531922
40 2.130095 0 0 0 0 0.03856554
time 28
0 0 0 0 0 0 0
1 0 0 0 0 0 0
2 -0.4596037 4.745055 0.4723072 0 0 0
3 0 0 0 1.56944 0.05427089 1.493225
4 2.169108 0 0 0.002997562 0.06206413 0.02415589
5 1.57372 0 0 0.002687106 0.0566162 0.02146617
6 0.908364 0 0.7 2.113332 -1.557658 -2.305805
7 0.989264 0 0.219672 0.4154729 -0.618094 -0.1748922
8 0.697546 0 0 1.078518 0 0
9 0.87866 0 0 1.309378E-06 1.169035E-06 1.683928
10 1.61306 0 0 0 0 0
11 0.7215335 -0.0001187767 0.001156839 0 0 0
12 0.908364 0 -0.7 2.852013 -1.244844 0.3204195
13 -0.988649 0 -0.21967 0.08443087 -0.6676441 0.1259201
14 -0.69816 0 0 0.3814397 0 0
15 -0.878661 0 0 -8.21565E-15 2.773941E-08 0.1071881
16 -1.613063 0 0 0 0 0
17 -0.6996844 0.002392221 0.01658587 0 0 0
18 1.327899 0 0 0.0003975622 -0.00163336 -0.0276829
19 0.03170101 0 0 0.001564468 -0.06652775 0.07175354
20 5.399332 -0.580462 2.17593 0 0 0
21 5.399315 -0.5804622 -2.175933 0 0 3.141593
22 0 0 0 0 0 0
23 1.426178 3.512926 0 0 0 1.570796
24 3.057939 0.0778584 0 -1.570796 -1.570796 0
25 0 0 0 1.638623 0.009269281 -1.627478
26 -0.063815 0 -1.133617 -0.2885267 0.1736449 -0.0615817
27 0.856682 -0.00300495 0 -0.2780474 0.1955753 0.03256271
28 1.94 0 0 0 0 -0.08986458
29 0.182077 4.48999E-06 0 0 0 -0.1002664
30 0.565037 0 0 0.1114284 -0.3047762 0.03263852
31 0.17727 0.3363641 0 0 0 1.633722
32 -0.063815 0 1.133617 -0.05061869 -0.08185315 3.121463
33 -0.856682 0.00299782 0 -0.05121174 -0.08038426 -0.01454192
34 -1.94 0 0 0 0 -0.0985291
35 -0.182077 0 0 0 0 -0.1089035
36 -0.565037 0 0 -0.03158668 0.1002198 0.2278897
37 -0.17727 -0.3363641 0 -4.547474E-13 -8.697612E-06 1.597577
39 -0.831173 -1.731595 0 -1.863501E-09 0.03030737 -1.535563
40 2.130095 0 0 0 0 0.03870132
time 29
0 0 0 0 0 0 0
1 0 0 0 0 0 0
2 -0.4579318 4.751077 0.4606858 0 0 0
3 0 0 0 1.57006 0.05143242 1.494403
4 2.169108 0 0 0.00345659 0.06027258 0.01820848
5 1.57372 0 0 0.003358551 0.05477025 0.01630085
6 0.908364 0 0.7 2.061892 -1.557896 -2.252782
7 0.989264 0 0.219672 0.4154729 -0.618094 -0.1748922
8 0.697546 0 0 1.078518 0 0
9 0.87866 0 0 1.309378E-06 1.169035E-06 1.683928
10 1.61306 0 0 0 0 0
11 0.7202002 0.0002037404 0.002004006 0 0 0
12 0.908364 0 -0.7 2.845975 -1.237963 0.3364394
13 -0.988649 0 -0.21967 0.09234116 -0.6581348 0.1085646
14 -0.69816 0 0 0.3864612 0 0
15 -0.878661 0 0 -1.509903E-14 2.773929E-08 0.09886019
16 -1.613063 0 0 0 0 0
17 -0.6991751 0.003536277 0.01580343 0 0 0
18 1.327899 0 0 0.0003975724 -0.002356704 -0.03075103
19 0.03170101 0 0 -0.0006523867 -0.06961711 0.08227105
20 5.399332 -0.580462 2.17593 0 0 0
21 5.399315 -0.5804622 -2.175933 0 0 3.141593
22 0 0 0 0 0 0
23 1.426178 3.512926 0 0 0 1.570796
24 3.057939 0.0778584 0 -1.570796 -1.570796 0
25 0 0 0 1.644668 0.006336582 -1.628983
26 -0.063815 0 -1.133617 -0.2905143 0.1755929 -0.05918868
27 0.856682 -0.00300495 0 -0.2800158 0.1965147 0.03256539
28 1.94 0 0 0 0 -0.1011616
29 0.182077 4.48999E-06 0 0 0 -0.1115266
30 0.565037 0 0 0.113259 -0.3028531 0.03431621
31 0.17727 0.3363641 0 0 0 1.643632
32 -0.063815 0 1.133617 -0.04768689 -0.08258707 3.119253
33 -0.856682 0.00299782 0 -0.04854074 -0.08095038 -0.01621416
34 -1.94 0 0 0 0 -0.09287938
35 -0.182077 0 0 0 0 -0.1032734
36 -0.565037 0 0 -0.0319651 0.1002331 0.2099022
37 -0.17727 -0.3363641 0 4.547474E-13 -8.697612E-06 1.60299
39 -0.831173 -1.731595 0 9.317283E-10 0.02951165 -1.542706
40 2.130095 0 0 0 0 0.03485018
time 30
0 0 0 0 0 0 0
1 0 0 0 0 0 0
2 -0.456752 4.761974 0.4434051 0 0 0
3 0 0 0 1.570657 0.04751995 1.495803
4 2.169108 0 0 0.003811457 0.05804553 0.01127254
5 1.57372 0 0 0.003926771 0.05249615 0.01056829
6 0.908364 0 0.7 1.988924 -1.558281 -2.177623
7 0.989264 0 0.219672 0.4154729 -0.618094 -0.1748922
8 0.697546 0 0 1.078518 0 0
9 0.87866 0 0 1.309378E-06 1.169035E-06 1.683928
10 1.61306 0 0 0 0 0
11 0.7184943 0.000651823 0.003090899 0 0 0
12 0.908364 0 -0.7 2.841866 -1.231816 0.3491633
13 -0.988649 0 -0.21967 0.1015314 -0.6495088 0.08736148
14 -0.69816 0 0 0.3923582 0 0
15 -0.878661 0 0 -7.549517E-15 2.773959E-08 0.08523076
16 -1.613063 0 0 0 0 0
17 -0.6986301 0.00493726 0.01474889 0 0 0
18 1.327899 0 0 0.000397749 -0.003742201 -0.03342115
19 0.03170101 0 0 -0.002318968 -0.0706727 0.0923572
20 5.399332 -0.580462 2.17593 0 0 0
21 5.399315 -0.5804622 -2.175933 0 0 3.141593
22 0 0 0 0 0 0
23 1.426178 3.512926 0 0 0 1.570796
24 3.057939 0.0778584 0 -1.570796 -1.570796 0
25 0 0 0 1.650925 0.00284246 -1.630814
26 -0.063815 0 -1.133617 -0.2923283 0.1783655 -0.05623892
27 0.856682 -0.00300495 0 -0.2815193 0.197777 0.03311062
28 1.94 0 0 0 0 -0.1077496
29 0.182077 4.48999E-06 0 0 0 -0.1180843
30 0.565037 0 0 0.1159174 -0.3004651 0.0238301
31 0.17727 0.3363641 0 0 0 1.658842
32 -0.063815 0 1.133617 -0.04464963 -0.08360443 3.115442
33 -0.856682 0.00299782 0 -0.04547947 -0.08176479 -0.01878409
34 -1.94 0 0 0 0 -0.07954565
35 -0.182077 0 0 0 0 -0.08998923
36 -0.565037 0 0 -0.03274952 0.1005106 0.1772475
37 -0.17727 -0.3363641 0 4.547474E-13 -8.697612E-06 1.610973
39 -0.831173 -1.731595 0 0 0.02808635 -1.553017
40 2.130095 0 0 0 0 0.02749179
time 31
0 0 0 0 0 0 0
1 0 0 0 0 0 0
2 -0.456045 4.773125 0.420349 0 0 0
3 0 0 0 1.571239 0.04245218 1.497419
4 2.169108 0 0 0.004052781 0.05542552 0.004926352
5 1.57372 0 0 0.004358694 0.04985196 0.005069037
6 0.908364 0 0.7 1.894314 -1.558816 -2.079205
7 0.989264 0 0.219672 0.4154729 -0.618094 -0.1748922
8 0.697546 0 0 1.078518 0 0
9 0.87866 0 0 1.309378E-06 1.169035E-06 1.683928
10 1.61306 0 0 0 0 0
11 0.7166856 0.0010874 0.004095257 0 0 0
12 0.908364 0 -0.7 2.84005 -1.226782 0.3573889
13 -0.988649 0 -0.21967 0.111651 -0.6420582 0.06423839
14 -0.69816 0 0 0.399612 0 0
15 -0.878661 0 0 3.719247E-15 2.773957E-08 0.0664452
16 -1.613063 0 0 0 0 0
17 -0.698267 0.006259421 0.01357036 0 0 0
18 1.327899 0 0 0.0003976081 -0.00580312 -0.03550914
19 0.03170101 0 0 -0.003338519 -0.06925313 0.09673689
20 5.399332 -0.580462 2.17593 0 0 0
21 5.399315 -0.5804622 -2.175933 0 0 3.141593
22 0 0 0 0 0 0
23 1.426178 3.512926 0 0 0 1.570796
24 3.057939 0.0778584 0 -1.570796 -1.570796 0
25 0 0 0 1.656992 -0.001154989 -1.632969
26 -0.063815 0 -1.133617 -0.2938866 0.1813778 -0.05481882
27 0.856682 -0.00300495 0 -0.2827407 0.1993848 0.03427653
28 1.94 0 0 0 0 -0.1119557
29 0.182077 4.48999E-06 0 0 0 -0.1222787
30 0.565037 0 0 0.1182463 -0.297706 0.01082718
31 0.17727 0.3363641 0 0 0 1.672094
32 -0.063815 0 1.133617 -0.04163346 -0.08488433 3.111077
33 -0.856682 0.00299782 0 -0.04242717 -0.08283672 -0.02099348
34 -1.94 0 0 0 0 -0.06479538
35 -0.182077 0 0 0 0 -0.07528531
36 -0.565037 0 0 -0.03379755 0.1010724 0.1413454
37 -0.17727 -0.3363641 0 4.547474E-13 -8.697612E-06 1.619556
39 -0.831173 -1.731595 0 9.316369E-10 0.025979 -1.566164
40 2.130095 0 0 0 0 0.01708292
end
